<?xml version="1.0" encoding="utf-8"?>
<!-- Generator: Adobe Illustrator 27.5.0, SVG Export Plug-In . SVG Version: 6.00 Build 0)  -->
<svg version="1.1" xmlns="http://www.w3.org/2000/svg" xmlns:xlink="http://www.w3.org/1999/xlink" x="0px" y="0px"
	 viewBox="0 0 750 500" style="enable-background:new 0 0 750 500;" xml:space="preserve">
<g id="BACKGROUND">
	<linearGradient id="SVGID_1_" gradientUnits="userSpaceOnUse" x1="-108.9111" y1="-73.1742" x2="744.547" y2="496.7975">
		<stop  offset="0" style="stop-color:#3D4351"/>
		<stop  offset="1" style="stop-color:#010214"/>
	</linearGradient>
	<rect style="fill:url(#SVGID_1_);" width="750" height="500"/>
</g>
<g id="OBJECTS">
	<g>
		<defs>
			<rect id="SVGID_00000073690558366211057370000004510824693894273920_" width="750" height="500"/>
		</defs>
		<clipPath id="SVGID_00000158000480830601949950000010140097679588571044_">
			<use xlink:href="#SVGID_00000073690558366211057370000004510824693894273920_"  style="overflow:visible;"/>
		</clipPath>
		<g style="clip-path:url(#SVGID_00000158000480830601949950000010140097679588571044_);">
			<path style="fill:none;stroke:#010214;stroke-miterlimit:10;" d="M297.563-232.67c-38.881-8.849-81.063-5.002-117.271,10.694
				c-36.209,15.697-66.183,43.129-83.333,76.268c-22.799,44.054-24.896,99.131-63.85,132.374
				C6.079,9.733-32.402,16.443-67.631,26.665c-56.203,16.308-109.527,44.722-145.826,87.244
				c-36.299,42.521-53.648,100.215-37.627,152.145"/>
			<path style="fill:none;stroke:#010214;stroke-miterlimit:10;" d="M298.483-232.423c-39.716-8.43-82.385-3.333-118.331,13.637
				c-8.262,3.899-16.157,8.419-23.597,13.479c-24.926,16.962-44.812,39.936-56.933,66.036
				c-7.178,15.467-11.851,32.137-16.291,48.683C74.804-58.954,67.128-27.625,43.47-5.071C35.786,2.274,26.983,8.161,17.429,13.164
				c-21.49,11.252-46.91,17.869-71.32,25.715c-10.094,3.244-20.183,6.797-30.169,10.636c-25.266,9.713-49.724,21.279-71.732,35.246
				c-17.749,11.269-33.938,24.115-47.944,38.845c-3.447,3.624-6.747,7.371-9.89,11.229c-15.808,19.393-27.71,41.601-34.144,65.147
				c-6.471,23.717-7.35,48.893-0.381,73.114"/>
			<path style="fill:none;stroke:#010214;stroke-miterlimit:10;" d="M299.403-232.176c-40.551-8.011-83.708-1.664-119.391,16.579
				c-8.2,4.188-15.994,8.999-23.289,14.345c-24.443,17.926-43.404,41.737-54.437,68.417c-6.533,15.816-10.493,32.74-14.099,49.446
				C81.229-51.485,75.562-20.08,53.833,3.192c-7.05,7.591-15.254,13.815-24.302,19.242C9.177,34.637-15.718,42.478-40.152,51.094
				c-10.103,3.562-20.287,7.351-30.441,11.311c-25.684,10.017-50.869,21.171-73.597,34.366
				c-18.322,10.648-35.115,22.653-49.826,36.534c-3.621,3.415-7.102,6.952-10.434,10.603c-16.766,18.35-29.879,39.602-37.56,62.75
				c-7.716,23.312-9.831,48.751-3.21,73.482"/>
			<path style="fill:none;stroke:#010214;stroke-miterlimit:10;" d="M300.323-231.929c-41.386-7.593-85.03,0.005-120.45,19.521
				c-8.138,4.478-15.831,9.58-22.981,15.211c-23.96,18.89-41.995,43.539-51.942,70.799c-5.887,16.165-9.134,33.343-11.906,50.209
				c-5.391,32.174-9.049,63.653-28.85,87.645c-6.415,7.838-14.02,14.398-22.563,20.248C22.415,44.858-1.955,53.922-26.413,63.309
				c-10.112,3.879-20.391,7.904-30.713,11.987c-26.102,10.322-52.014,21.062-75.462,33.486
				c-18.896,10.027-36.292,21.191-51.708,34.222c-3.796,3.206-7.458,6.533-10.979,9.976c-17.724,17.308-32.048,37.604-40.975,60.354
				c-8.961,22.908-12.313,48.609-6.038,73.849"/>
			<path style="fill:none;stroke:#010214;stroke-miterlimit:10;" d="M301.243-231.681c-42.22-7.174-86.352,1.674-121.51,22.464
				c-8.076,4.768-15.668,10.161-22.674,16.076c-23.478,19.854-40.586,45.34-49.446,73.18c-5.241,16.514-7.775,33.946-9.713,50.971
				c-3.822,32.444-5.543,63.955-23.344,88.709c-5.804,8.07-12.786,14.982-20.824,21.255c-18.08,14.105-41.925,24.393-66.406,34.55
				c-10.121,4.197-20.496,8.458-30.985,12.662c-26.52,10.626-53.159,20.953-77.326,32.605c-19.469,9.405-37.469,19.729-53.59,31.911
				c-3.97,2.997-7.814,6.113-11.524,9.35c-18.682,16.266-34.218,35.605-44.391,57.958c-10.206,22.503-14.794,48.467-8.866,74.217"/>
			<path style="fill:none;stroke:#010214;stroke-miterlimit:10;" d="M302.163-231.434c-43.055-6.756-87.675,3.343-122.569,25.406
				c-8.014,5.058-15.506,10.742-22.366,16.942c-22.995,20.818-39.177,47.141-46.95,75.562c-4.595,16.863-6.376,34.551-7.52,51.734
				c-2.177,32.718-1.983,64.297-17.839,89.773c-5.175,8.315-11.552,15.565-19.084,22.261C48.891,65.3,25.571,76.811,1.066,87.738
				c-10.13,4.514-20.6,9.012-31.257,13.338c-26.938,10.93-54.303,20.844-79.191,31.725c-20.043,8.784-38.646,18.267-55.472,29.599
				c-4.145,2.788-8.169,5.694-12.068,8.724c-19.64,15.223-36.387,33.607-47.806,55.561c-11.45,22.098-17.276,48.326-11.694,74.585"
				/>
			<path style="fill:none;stroke:#010214;stroke-miterlimit:10;" d="M303.083-231.187c-43.89-6.337-88.997,5.013-123.629,28.348
				c-7.952,5.348-15.343,11.323-22.058,17.808c-22.512,21.782-37.768,48.943-44.455,77.944c-3.949,17.212-5.012,35.152-5.327,52.496
				c-0.599,32.985,1.577,64.641-12.334,90.836c-4.546,8.561-10.318,16.148-17.345,23.268C62.13,75.521,39.334,88.255,14.806,99.952
				c-10.138,4.832-20.704,9.566-31.53,14.013C-44.08,125.2-72.172,134.7-97.779,144.81c-20.616,8.163-39.822,16.805-57.354,27.288
				c-4.319,2.578-8.525,5.275-12.613,8.097c-20.598,14.181-38.556,31.608-51.221,53.165c-12.695,21.694-19.757,48.184-14.523,74.952
				"/>
			<path style="fill:none;stroke:#010214;stroke-miterlimit:10;" d="M304.003-230.94c-44.725-5.918-90.32,6.682-124.688,31.29
				c-7.89,5.638-15.18,11.903-21.75,18.673c-22.029,22.745-36.359,50.744-41.959,80.325c-3.304,17.561-3.649,35.753-3.134,53.259
				c0.978,33.251,5.139,64.988-6.828,91.9c-3.916,8.808-9.084,16.731-15.605,24.274c-14.67,16.958-36.94,30.917-61.492,43.384
				c-10.147,5.149-20.809,10.12-31.802,14.688c-27.774,11.539-56.593,20.626-82.92,29.965
				c-21.189,7.541-40.999,15.343-59.237,24.976c-4.494,2.369-8.881,4.856-13.158,7.471c-21.556,13.139-40.725,29.61-54.637,50.769
				c-13.94,21.289-22.239,48.042-17.351,75.32"/>
			<path style="fill:none;stroke:#010214;stroke-miterlimit:10;" d="M304.923-230.693c-45.56-5.5-91.642,8.351-125.748,34.233
				c-7.827,5.928-15.018,12.484-21.443,19.539c-21.547,23.709-34.951,52.546-39.464,82.707c-2.658,17.91-2.287,36.354-0.941,54.021
				c2.552,33.517,8.703,65.337-1.323,92.964c-3.286,9.055-7.85,17.314-13.866,25.281c-13.533,17.909-35.279,33.091-59.854,46.329
				c-10.156,5.467-20.913,10.674-32.074,15.364c-28.192,11.843-57.738,20.517-84.784,29.085
				c-21.763,6.92-42.176,13.881-61.119,22.665c-4.668,2.16-9.236,4.437-13.702,6.845c-22.515,12.096-42.895,27.611-58.052,48.372
				c-15.184,20.884-24.72,47.9-20.179,75.688"/>
			<path style="fill:none;stroke:#010214;stroke-miterlimit:10;" d="M305.844-230.445c-46.395-5.081-92.965,10.02-126.808,37.175
				c-7.765,6.217-14.855,13.065-21.135,20.405c-21.064,24.673-33.542,54.347-36.968,85.089c-2.012,18.259-0.926,36.954,1.251,54.784
				c4.125,33.783,12.27,65.688,4.182,94.028c-2.655,9.303-6.617,17.897-12.127,26.287c-12.396,18.86-33.617,35.266-58.215,49.273
				c-10.165,5.784-21.018,11.228-32.346,16.039c-28.61,12.147-58.883,20.408-86.649,28.204
				c-22.336,6.298-43.353,12.419-63.001,20.353c-4.842,1.951-9.592,4.017-14.247,6.218c-23.473,11.054-45.064,25.613-61.468,45.976
				c-16.429,20.48-27.202,47.758-23.007,76.056"/>
			<path style="fill:none;stroke:#010214;stroke-miterlimit:10;" d="M306.764-230.198c-47.23-4.662-94.287,11.689-127.867,40.117
				c-7.703,6.507-14.692,13.646-20.827,21.271c-20.581,25.637-32.133,56.149-34.472,87.47c-1.366,18.608,0.435,37.555,3.444,55.547
				c5.696,34.048,15.84,66.041,9.688,95.092c-2.023,9.552-5.383,18.481-10.387,27.294c-11.26,19.811-31.955,37.441-56.577,52.218
				c-10.174,6.102-21.122,11.782-32.618,16.715c-29.028,12.452-60.028,20.299-88.513,27.324
				c-22.909,5.677-44.53,10.956-64.883,18.042c-5.017,1.742-9.947,3.598-14.792,5.592c-24.43,10.012-47.233,23.614-64.883,43.58
				c-17.674,20.075-29.683,47.616-25.836,76.423"/>
			<path style="fill:none;stroke:#010214;stroke-miterlimit:10;" d="M307.684-229.951c-48.065-4.244-95.61,13.358-128.927,43.06
				c-7.641,6.797-14.529,14.227-20.519,22.136c-20.098,26.601-30.724,57.95-31.977,89.852c-0.72,18.957,1.794,38.155,5.637,56.309
				c7.265,34.314,19.413,66.394,15.193,96.156c-1.39,9.801-4.149,19.064-8.648,28.3c-10.123,20.762-30.294,39.615-54.939,55.163
				c-10.183,6.419-21.226,12.335-32.891,17.39c-29.446,12.756-61.173,20.191-90.378,26.444c-23.483,5.056-45.706,9.494-66.765,15.73
				c-5.191,1.532-10.303,3.179-15.336,4.966c-25.389,8.97-49.402,21.616-68.298,41.183c-18.919,19.67-32.165,47.475-28.664,76.791"
				/>
			<path style="fill:none;stroke:#010214;stroke-miterlimit:10;" d="M308.604-229.704c-48.899-3.825-96.932,15.027-129.987,46.002
				c-7.579,7.087-14.367,14.808-20.212,23.002c-19.615,27.565-29.315,59.752-29.481,92.233c-0.075,19.306,3.152,38.756,7.83,57.072
				c8.832,34.58,22.989,66.747,20.699,97.22c-0.756,10.05-2.915,19.647-6.909,29.307c-8.987,21.714-28.632,41.79-53.301,58.108
				c-10.191,6.737-21.331,12.889-33.163,18.065c-29.864,13.06-62.318,20.082-92.243,25.563
				c-24.056,4.434-46.883,8.033-68.647,13.419c-5.366,1.323-10.659,2.76-15.881,4.339c-26.347,7.927-51.571,19.617-71.714,38.787
				c-20.163,19.266-34.646,47.333-31.492,77.159"/>
			<path style="fill:none;stroke:#010214;stroke-miterlimit:10;" d="M309.524-229.457c-49.734-3.406-98.255,16.697-131.046,48.944
				c-7.517,7.377-14.204,15.388-19.904,23.868c-19.133,28.529-27.906,61.553-26.985,94.615c0.571,19.655,4.509,39.357,10.023,57.834
				c10.398,34.847,26.568,67.1,26.204,98.283c-0.12,10.299-1.681,20.23-5.169,30.313c-7.85,22.664-26.971,43.964-51.663,61.052
				c-10.2,7.054-21.435,13.443-33.435,18.741c-30.282,13.365-63.462,19.973-94.107,24.683c-24.63,3.813-48.06,6.57-70.529,11.107
				c-5.54,1.114-11.014,2.34-16.426,3.713c-27.304,6.885-53.741,17.619-75.129,36.391c-21.408,18.861-37.128,47.191-34.32,77.526"/>
			<path style="fill:none;stroke:#010214;stroke-miterlimit:10;" d="M310.444-229.209c-50.569-2.988-99.577,18.366-132.106,51.887
				c-7.454,7.667-14.041,15.969-19.596,24.733c-18.65,29.493-26.498,63.354-24.49,96.997c1.217,20.004,5.866,39.958,12.216,58.597
				c11.962,35.114,30.15,67.453,31.709,99.347c0.516,10.547-0.447,20.813-3.43,31.32c-6.713,23.616-25.309,46.139-50.025,63.997
				c-10.209,7.372-21.539,13.997-33.707,19.416c-30.7,13.669-64.607,19.864-95.971,23.803c-25.203,3.192-49.237,5.109-72.412,8.796
				c-5.715,0.905-11.37,1.921-16.97,3.087c-28.263,5.843-55.91,15.62-78.545,33.994c-22.653,18.456-39.609,47.049-37.149,77.894"/>
			<path style="fill:none;stroke:#010214;stroke-miterlimit:10;" d="M311.364-228.962c-51.404-2.569-100.9,20.035-133.165,54.829
				c-7.392,7.957-13.878,16.55-19.288,25.599c-18.167,30.457-25.089,65.156-21.994,99.378c1.863,20.353,7.222,40.56,14.408,59.359
				c13.525,35.382,33.734,67.804,37.215,100.411c1.152,10.796,0.787,21.396-1.691,32.326c-5.577,24.567-23.648,48.314-48.387,66.942
				c-10.218,7.689-21.644,14.551-33.979,20.092C73.364,243.948,38.73,249.73,6.646,252.898c-25.776,2.57-50.414,3.646-74.294,6.484
				c-5.889,0.695-11.725,1.502-17.515,2.46c-29.221,4.8-58.079,13.622-81.96,31.598c-23.897,18.052-42.09,46.907-39.977,78.262"/>
			<path style="fill:none;stroke:#010214;stroke-miterlimit:10;" d="M312.284-228.715c-52.239-2.15-102.222,21.704-134.225,57.771
				c-7.33,8.247-13.715,17.131-18.98,26.465c-17.684,31.421-23.68,66.957-19.499,101.76c2.508,20.702,8.578,41.162,16.601,60.122
				c15.087,35.651,37.32,68.155,42.72,101.475c1.79,11.044,2.021,21.98,0.049,33.333c-4.44,25.518-21.986,50.488-46.749,69.887
				c-10.227,8.007-21.748,15.105-34.252,20.767c-31.536,14.278-66.897,19.646-99.701,22.043c-26.35,1.949-51.59,2.185-76.176,4.173
				c-6.063,0.486-12.081,1.083-18.06,1.834c-30.178,3.758-60.248,11.623-85.375,29.202c-25.142,17.647-44.572,46.765-42.805,78.63"
				/>
			<path style="fill:none;stroke:#010214;stroke-miterlimit:10;" d="M313.204-228.468c-53.074-1.732-103.545,23.373-135.285,60.714
				c-7.268,8.536-13.553,17.712-18.673,27.33c-17.202,32.384-22.271,68.759-17.003,104.141c3.154,21.05,9.933,41.765,18.794,60.884
				c16.648,35.92,40.907,68.503,48.225,102.539c2.428,11.291,3.255,22.563,1.788,34.339c-3.303,26.469-20.324,52.663-45.111,72.832
				c-10.235,8.324-21.853,15.659-34.524,21.442c-31.954,14.582-68.042,19.537-101.565,21.162
				c-26.923,1.328-52.767,0.723-78.058,1.861c-6.238,0.277-12.437,0.663-18.604,1.208c-31.137,2.716-62.417,9.625-88.791,26.805
				c-26.387,17.242-47.053,46.624-45.633,78.997"/>
			<path style="fill:none;stroke:#010214;stroke-miterlimit:10;" d="M314.124-228.221c-53.908-1.313-104.867,25.042-136.344,63.656
				c-7.206,8.826-13.39,18.293-18.365,28.196c-16.719,33.348-20.862,70.56-14.507,106.523c3.8,21.399,11.246,42.385,20.987,61.647
				c18.131,36.224,44.496,68.851,53.731,103.603c3.066,11.538,4.489,23.146,3.527,35.346c-2.167,27.42-18.663,54.837-43.472,75.776
				c-10.244,8.642-21.957,16.213-34.796,22.118c-32.372,14.886-69.186,19.428-103.43,20.282c-27.496,0.706-53.944-0.74-79.94-0.45
				c-6.412,0.068-12.792,0.244-19.149,0.582c-32.095,1.673-64.587,7.626-92.206,24.409c-27.632,16.838-49.535,46.482-48.462,79.365"
				/>
			<path style="fill:none;stroke:#010214;stroke-miterlimit:10;" d="M315.044-227.973c-54.743-0.894-106.189,26.712-137.404,66.598
				c-7.144,9.116-13.227,18.873-18.057,29.062c-16.236,34.312-19.453,72.362-12.012,108.905c4.446,21.748,12.605,42.988,23.18,62.41
				c19.699,36.494,48.086,69.197,59.236,104.666c3.705,11.785,5.723,23.729,5.267,36.353c-1.03,28.371-17.001,57.012-41.834,78.721
				c-10.253,8.96-22.061,16.767-35.068,22.793c-32.79,15.191-70.331,19.319-105.294,19.402c-28.07,0.085-55.121-2.201-81.822-2.762
				c-6.586-0.141-13.148-0.175-19.694-0.045c-33.053,0.631-66.756,5.628-95.622,22.013c-28.876,16.433-52.016,46.34-51.29,79.733"/>
			<path style="fill:none;stroke:#010214;stroke-miterlimit:10;" d="M315.964-227.726c-55.578-0.476-107.512,28.381-138.463,69.541
				c-7.082,9.406-13.065,19.454-17.749,29.927c-15.753,35.276-18.045,74.163-9.516,111.286
				c5.092,22.097,13.963,43.591,25.373,63.172c21.267,36.763,51.676,69.542,64.742,105.73c4.344,12.031,6.957,24.312,7.006,37.359
				c0.106,29.322-15.34,59.187-40.196,81.666c-10.262,9.277-22.166,17.32-35.34,23.469c-33.208,15.495-71.476,19.21-107.159,18.521
				c-28.643-0.536-56.298-3.664-83.705-5.073c-6.761-0.35-13.503-0.594-20.238-0.671c-34.011-0.411-68.925,3.629-99.037,19.616
				c-30.121,16.028-54.498,46.198-54.118,80.1"/>
			<path style="fill:none;stroke:#010214;stroke-miterlimit:10;" d="M316.884-227.479c-56.413-0.057-108.834,30.05-139.523,72.483
				c-7.02,9.696-12.902,20.035-17.442,30.793c-15.271,36.24-16.636,75.965-7.021,113.668c5.737,22.446,15.322,44.194,27.566,63.935
				c22.835,37.033,55.336,69.861,70.247,106.794c5.006,12.268,8.191,24.895,8.746,38.366c1.243,30.273-13.678,61.361-38.558,84.611
				c-10.271,9.595-22.27,17.874-35.613,24.144c-33.626,15.799-72.621,19.102-109.023,17.641
				c-29.216-1.158-57.475-5.126-85.587-7.385c-6.935-0.56-13.859-1.014-20.783-1.297c-34.969-1.454-71.094,1.631-102.452,17.22
				c-31.366,15.624-56.979,46.056-56.947,80.468"/>
			<path style="fill:none;stroke:#010214;stroke-miterlimit:10;" d="M317.804-227.232c-57.248,0.361-110.157,31.719-140.583,75.425
				c-6.957,9.986-12.739,20.616-17.134,31.659C145.3-82.944,144.86-42.382,155.563-4.098c6.383,22.795,16.681,44.797,29.759,64.697
				c24.403,37.304,58.913,70.207,75.752,107.858c5.64,12.515,9.425,25.479,10.485,39.372c2.38,31.224-12.017,63.536-36.92,87.555
				c-10.279,9.912-22.374,18.428-35.885,24.82c-34.044,16.103-73.766,18.993-110.888,16.761c-29.79-1.779-58.651-6.588-87.469-9.696
				c-7.11-0.769-14.215-1.433-21.328-1.924c-35.927-2.496-73.263-0.368-105.868,14.824c-32.611,15.219-59.461,45.914-59.775,80.836"
				/>
			<path style="fill:none;stroke:#010214;stroke-miterlimit:10;" d="M318.724-226.985c-58.083,0.78-111.479,33.388-141.642,78.368
				c-6.895,10.276-12.576,21.197-16.826,32.525c-14.305,38.168-13.818,79.567-2.029,118.431
				c7.029,23.144,18.039,45.399,31.951,65.46c25.971,37.574,62.49,70.551,81.258,108.922c6.275,12.761,10.659,26.062,12.224,40.379
				c3.516,32.175-10.355,65.711-35.282,90.5c-10.288,10.23-22.479,18.982-36.157,25.495
				c-34.462,16.408-74.911,18.884-112.752,15.881c-30.363-2.401-59.828-8.05-89.351-12.008c-7.284-0.978-14.57-1.852-21.872-2.55
				c-36.885-3.538-75.433-2.366-109.283,12.427c-33.855,14.814-61.942,45.773-62.603,81.204"/>
			<path style="fill:none;stroke:#010214;stroke-miterlimit:10;" d="M319.644-226.737c-58.918,1.199-112.802,35.057-142.702,81.31
				c-6.833,10.565-12.414,21.778-16.518,33.39c-13.822,39.132-12.409,81.369,0.466,120.813
				c7.675,23.493,19.398,46.002,34.144,66.222c27.539,37.844,66.067,70.896,86.763,109.986
				c6.909,13.007,11.892,26.645,13.964,41.385c4.653,33.126-8.694,67.885-33.644,93.445c-10.297,10.547-22.583,19.536-36.429,26.17
				c-34.88,16.712-76.056,18.775-114.617,15.001c-30.937-3.022-61.005-9.512-91.233-14.319c-7.459-1.187-14.926-2.271-22.417-3.176
				c-37.843-4.581-77.602-4.365-112.699,10.031c-35.1,14.41-64.424,45.631-65.431,81.571"/>
			<path style="fill:none;stroke:#010214;stroke-miterlimit:10;" d="M320.564-226.49c-59.753,1.617-114.124,36.727-143.761,84.252
				c-6.771,10.855-12.251,22.359-16.21,34.256c-13.34,40.096-11.001,83.17,2.962,123.194c8.32,23.842,20.757,46.605,36.337,66.985
				c29.107,38.114,69.644,71.241,92.268,111.05c7.544,13.253,13.126,27.228,15.703,42.392c5.789,34.077-7.032,70.06-32.006,96.39
				c-10.306,10.865-22.688,20.09-36.701,26.846c-35.298,17.016-77.201,18.666-116.481,14.12
				c-31.51-3.643-62.182-10.974-93.115-16.631c-7.633-1.396-15.281-2.691-22.962-3.803c-38.801-5.623-79.771-6.363-116.114,7.635
				c-36.345,14.005-66.905,45.489-68.26,81.939"/>
			<path style="fill:none;stroke:#010214;stroke-miterlimit:10;" d="M321.484-226.243c-74.425,2.501-140.207,56.794-160.724,122.316
				s0.021,138.309,43.988,193.323c40.893,51.169,102.881,93.13,115.216,155.512c9.784,49.482-18.791,103.311-67.341,126.856
				c-35.716,17.321-78.345,18.557-118.346,13.24c-40.001-5.317-78.745-16.706-118.504-23.371
				c-39.759-6.665-81.94-8.362-119.53,5.238c-37.589,13.6-69.387,45.347-71.088,82.307"/>
			<path style="fill:none;stroke:#030516;stroke-miterlimit:10;" d="M-173.734,450.538c1.495-29.973,22.951-56.398,51.088-72.316
				c6.623-3.745,13.614-6.914,20.81-9.426c23.352-8.156,48.417-10.438,73.521-9.363c15.493,0.665,31.011,2.607,46.183,5.26
				c39.757,6.95,78.528,18.377,118.509,24.154c24.962,3.607,51.002,4.91,75.824,0.955c17.036-2.712,33.34-8.146,47.825-16.091
				c30.312-16.628,51.857-44.549,60.518-76.002c4.732-17.178,5.696-35.332,2.168-52.983c-2.312-11.57-6.19-22.485-11.198-32.919
				c-12.567-26.204-32.212-49.389-52.135-72.001c-15.32-17.421-30.739-34.512-43.827-52.603
				c-16.172-22.353-28.822-47.445-36.789-74.058c-8.024-26.782-11.476-55.086-9.593-82.673c0.826-12.143,2.714-24.104,5.828-35.77
				c3.671-13.711,9.223-26.843,16.416-39.065c13.273-22.574,32.028-42.121,54.481-56.788c22.581-14.744,49.009-24.729,77.911-26.57"
				/>
			<path style="fill:none;stroke:#060719;stroke-miterlimit:10;" d="M-172.623,451.898c1.613-30.025,23.422-56.37,51.764-71.979
				c6.676-3.674,13.71-6.763,20.943-9.197c23.455-7.901,48.581-9.904,73.688-8.602c15.502,0.807,31.015,2.872,46.191,5.635
				c39.756,7.235,78.551,18.73,118.515,24.937c26.213,4.071,53.657,5.818,79.728,1.349c17.88-3.061,34.783-9.513,49.223-18.381
				c29.223-17.946,49.271-45.976,56.877-77.689c4.156-17.318,4.754-35.603,1.155-53.425c-2.357-11.675-6.169-22.73-11.002-33.329
				c-12.129-26.637-30.616-50.419-48.807-73.336c-13.972-17.674-27.63-34.842-39.296-52.87
				c-14.388-22.235-25.651-47.01-32.644-73.555c-7.048-26.708-10.126-55.185-8.925-82.69c0.523-12.112,1.931-23.95,4.45-35.432
				c2.98-13.491,7.676-26.332,13.96-38.251c11.583-22.016,28.354-41.04,48.959-55.82c20.728-14.854,45.551-25.764,73.974-28.459"/>
			<path style="fill:none;stroke:#080A1B;stroke-miterlimit:10;" d="M-171.513,453.259c1.731-30.077,23.893-56.342,52.441-71.642
				c6.729-3.602,13.806-6.613,21.077-8.968c23.558-7.646,48.745-9.371,73.854-7.841c15.511,0.949,31.02,3.137,46.199,6.01
				c39.754,7.521,78.572,19.109,118.521,25.719c27.465,4.544,56.311,6.727,83.632,1.743c18.723-3.411,36.217-10.85,50.622-20.67
				c28.145-19.186,46.685-47.404,53.235-79.376c3.58-17.458,3.812-35.874,0.142-53.867c-2.402-11.78-6.148-22.975-10.806-33.738
				c-11.692-27.07-29.021-51.45-45.478-74.672c-12.625-17.926-24.516-35.16-34.764-53.136
				c-12.601-22.103-22.479-46.575-28.499-73.053c-6.072-26.634-8.775-55.283-8.257-82.707c0.219-12.081,1.149-23.795,3.072-35.095
				c2.289-13.271,6.128-25.821,11.504-37.436c9.893-21.459,24.68-39.96,43.437-54.852c18.875-14.963,42.093-26.799,70.036-30.348"/>
			<path style="fill:none;stroke:#0A0C1D;stroke-miterlimit:10;" d="M-170.402,454.619c1.849-30.129,24.364-56.314,53.117-71.305
				c6.781-3.531,13.902-6.462,21.21-8.739c23.662-7.39,48.909-8.837,74.021-7.081c15.52,1.092,31.024,3.401,46.207,6.385
				c39.752,7.806,78.591,19.511,118.526,26.502c28.717,5.027,58.966,7.636,87.536,2.136c19.567-3.76,37.649-12.158,52.021-22.96
				c27.084-20.355,44.098-48.831,49.593-81.063c3.005-17.599,2.871-36.145-0.871-54.31c-2.447-11.886-6.128-23.22-10.611-34.148
				c-11.254-27.502-27.425-52.481-42.149-76.007c-11.277-18.178-21.4-35.465-30.233-53.403
				c-10.812-21.956-19.308-46.139-24.354-72.55c-5.096-26.56-7.424-55.382-7.59-82.724c-0.084-12.05,0.366-23.64,1.693-34.758
				c1.597-13.051,4.581-25.31,9.048-36.622c8.203-20.902,21.006-38.879,37.915-53.884c17.022-15.073,38.635-27.834,66.099-32.238"/>
			<path style="fill:none;stroke:#0D0F20;stroke-miterlimit:10;" d="M-169.292,455.979c1.967-30.181,24.835-56.285,53.793-70.969
				c6.834-3.459,13.998-6.312,21.344-8.51c23.765-7.135,49.073-8.304,74.188-6.32c15.529,1.234,31.029,3.666,46.215,6.76
				c39.751,8.091,78.607,19.933,118.532,27.285c29.969,5.518,61.62,8.544,91.44,2.53c20.411-4.109,39.084-13.439,53.42-25.249
				c26.048-21.459,41.512-50.258,45.952-82.749c2.429-17.739,1.929-36.416-1.884-54.752c-2.492-11.991-6.107-23.465-10.415-34.557
				c-10.816-27.935-25.891-53.484-38.821-77.343c-9.976-18.41-18.283-35.754-25.702-53.669
				c-9.024-21.791-16.137-45.704-20.21-72.047c-4.12-26.486-6.073-55.481-6.922-82.741c-0.387-12.018-0.417-23.485,0.315-34.421
				c0.906-12.831,3.034-24.8,6.591-35.808c6.513-20.345,17.331-37.798,32.393-52.916c15.169-15.182,35.177-28.869,62.162-34.127"/>
			<path style="fill:none;stroke:#0F1122;stroke-miterlimit:10;" d="M-168.182,457.34c2.085-30.232,25.307-56.257,54.47-70.632
				c6.887-3.388,14.094-6.161,21.477-8.281c23.868-6.879,49.237-7.77,74.354-5.559c15.537,1.376,31.034,3.931,46.223,7.135
				c39.749,8.376,78.62,20.372,118.538,28.067c31.22,6.019,64.274,9.453,95.344,2.923c21.254-4.459,40.527-14.694,54.818-27.538
				c25.041-22.506,38.926-51.685,42.31-84.436c1.854-17.879,0.987-36.687-2.897-55.194c-2.537-12.096-6.086-23.709-10.219-34.966
				c-10.378-28.368-24.307-54.514-35.492-78.678c-8.638-18.661-15.168-36.028-21.17-53.936
				c-7.242-21.608-12.965-45.268-16.065-71.544c-3.145-26.411-4.722-55.58-6.254-82.759c-0.691-11.987-1.223-23.33-1.064-34.084
				c0.187-12.612,1.487-24.289,4.135-34.993c4.824-19.788,13.657-36.718,26.871-51.948c13.316-15.292,31.719-29.905,58.225-36.016"
				/>
			<path style="fill:none;stroke:#111424;stroke-miterlimit:10;" d="M-167.071,458.7c2.203-30.284,25.778-56.229,55.146-70.296
				c6.94-3.316,14.19-6.01,21.611-8.053c23.972-6.624,49.402-7.237,74.521-4.798c15.546,1.518,31.038,4.195,46.231,7.51
				c39.748,8.661,78.632,20.826,118.543,28.85c32.469,6.528,66.929,10.362,99.248,3.317c22.098-4.808,41.983-15.926,56.217-29.828
				c24.066-23.505,36.339-53.113,38.669-86.123c1.278-18.019,0.045-36.958-3.91-55.636c-2.582-12.201-6.065-23.954-10.023-35.376
				c-9.94-28.8-22.723-55.546-32.163-80.014c-7.298-18.915-12.06-36.285-16.639-54.203c-5.47-21.405-9.794-44.832-11.92-71.041
				c-2.169-26.337-3.372-55.678-5.587-82.776c-0.994-11.956-2.009-23.174-2.442-33.747c-0.507-12.39-0.061-23.778,1.679-34.179
				c3.134-19.23,9.983-35.637,21.349-50.98c11.463-15.401,28.261-30.94,54.288-37.905"/>
			<path style="fill:none;stroke:#131627;stroke-miterlimit:10;" d="M-165.961,460.06c2.321-30.336,26.249-56.201,55.822-69.959
				c6.993-3.245,14.286-5.86,21.744-7.824c24.075-6.369,49.565-6.703,74.687-4.037c15.555,1.66,31.043,4.46,46.239,7.884
				c39.746,8.946,78.64,21.293,118.549,29.632c33.717,7.046,69.583,11.27,103.152,3.711c22.942-5.158,43.455-17.136,57.616-32.117
				c23.124-24.464,33.753-54.54,35.027-87.81c0.703-18.159-0.897-37.23-4.923-56.078c-2.627-12.306-6.044-24.199-9.828-35.785
				c-9.503-29.233-21.136-56.58-28.835-81.349c-5.958-19.169-8.963-36.527-12.107-54.469c-3.713-21.184-6.623-44.397-7.775-70.538
				c-1.193-26.263-2.021-55.777-4.919-82.793c-1.297-11.925-2.794-23.018-3.82-33.409c-1.201-12.169-1.583-23.266-0.777-33.364
				c1.49-18.67,6.309-34.557,15.827-50.012c9.611-15.511,24.803-31.975,50.351-39.795"/>
			<path style="fill:none;stroke:#161929;stroke-miterlimit:10;" d="M-164.85,461.421c2.439-30.388,26.72-56.173,56.499-69.622
				c7.045-3.174,14.382-5.709,21.878-7.595c24.178-6.113,49.73-6.169,74.854-3.276c15.564,1.802,31.048,4.725,46.248,8.259
				c39.744,9.231,78.646,21.771,118.554,30.415c34.963,7.572,72.238,12.179,107.056,4.104c23.785-5.507,44.946-18.328,59.014-34.407
				c22.217-25.391,31.167-55.967,31.386-89.497c0.127-18.299-1.839-37.501-5.936-56.521c-2.672-12.411-6.023-24.444-9.632-36.195
				c-9.065-29.666-19.549-57.615-25.506-82.685c-4.616-19.425-5.88-36.755-7.576-54.736c-1.977-20.948-3.451-43.961-3.63-70.036
				c-0.217-26.189-0.67-55.876-4.251-82.81c-1.601-11.894-3.579-22.861-5.199-33.072c-1.895-11.947-3.128-22.757-3.234-32.55
				c-0.195-18.116,2.635-33.476,10.305-49.044c7.758-15.62,21.345-33.01,46.414-41.684"/>
			<path style="fill:none;stroke:#181B2B;stroke-miterlimit:10;" d="M-163.74,462.781c2.557-30.439,27.191-56.144,57.175-69.285
				c7.098-3.102,14.478-5.559,22.011-7.366c24.281-5.858,49.894-5.636,75.02-2.516c15.573,1.945,31.052,4.989,46.256,8.634
				c39.743,9.516,78.649,22.261,118.56,31.198c36.207,8.107,74.892,13.088,110.96,4.498c24.629-5.856,46.457-19.504,60.413-36.696
				c21.342-26.29,28.581-57.395,27.744-91.184c-0.449-18.439-2.78-37.772-6.949-56.963c-2.717-12.516-6.002-24.689-9.436-36.604
				c-8.627-30.098-17.959-58.651-22.177-84.02c-3.273-19.682-2.815-36.972-3.045-55.002c-0.264-20.699-0.28-43.526,0.515-69.533
				c0.758-26.115,0.681-55.975-3.583-82.827c-1.904-11.862-4.363-22.705-6.577-32.735c-2.588-11.725-4.673-22.248-5.69-31.736
				c-1.882-17.564-1.039-32.396,4.783-48.076c5.905-15.73,17.887-34.046,42.476-43.573"/>
			<path style="fill:none;stroke:#1A1E2E;stroke-miterlimit:10;" d="M-162.629,464.141c2.675-30.491,27.662-56.116,57.851-68.949
				c7.151-3.031,14.574-5.408,22.145-7.137c24.385-5.603,50.058-5.102,75.187-1.755c15.582,2.087,31.057,5.254,46.264,9.009
				c39.741,9.801,78.65,22.759,118.566,31.98c37.449,8.651,77.546,13.996,114.864,4.892c25.473-6.206,47.99-20.667,61.812-38.986
				c20.5-27.17,25.994-58.822,24.103-92.871c-1.024-18.579-3.722-38.043-7.962-57.405c-2.762-12.621-5.981-24.933-9.241-37.014
				c-8.189-30.531-16.367-59.687-18.849-85.356c-1.928-19.939,0.228-37.182,1.487-55.269c1.423-20.443,2.891-43.09,4.659-69.03
				c1.734-26.041,2.032-56.073-2.916-82.844c-2.208-11.831-5.147-22.548-7.956-32.398c-3.28-11.503-6.22-21.74-8.146-30.921
				c-3.57-17.011-4.714-31.315-0.739-47.108c4.052-15.839,14.429-35.081,38.539-45.462"/>
			<path style="fill:none;stroke:#1D2030;stroke-miterlimit:10;" d="M-161.519,465.502c2.793-30.543,28.134-56.088,58.528-68.612
				c7.204-2.959,14.67-5.258,22.279-6.909c24.488-5.348,50.222-4.569,75.353-0.994c15.59,2.229,31.061,5.518,46.272,9.384
				c39.74,10.087,78.648,23.266,118.571,32.763c38.688,9.203,80.201,14.905,118.768,5.285c26.316-6.555,49.546-21.818,63.211-41.275
				c19.689-28.035,23.408-60.249,20.461-94.557c-1.6-18.719-4.664-38.314-8.976-57.847c-2.807-12.727-5.96-25.178-9.045-37.423
				c-7.751-30.964-14.773-60.724-15.52-86.691c-0.581-20.196,3.247-37.391,6.018-55.536c3.082-20.184,6.063-42.655,8.804-68.527
				c2.71-25.967,3.383-56.172-2.248-82.861c-2.511-11.8-5.93-22.391-9.334-32.061c-3.971-11.28-7.767-21.232-10.603-30.107
				c-5.259-16.459-8.388-30.234-6.261-46.14c2.199-15.949,10.971-36.116,34.602-47.352"/>
			<path style="fill:none;stroke:#1F2232;stroke-miterlimit:10;" d="M-160.408,466.862c2.911-30.595,28.605-56.06,59.204-68.275
				c7.257-2.888,14.766-5.107,22.412-6.68c24.591-5.092,50.386-4.035,75.52-0.233c15.599,2.371,31.066,5.783,46.28,9.759
				c39.738,10.371,78.644,23.78,118.577,33.545c39.925,9.763,82.855,15.814,122.672,5.679c27.16-6.904,51.124-22.959,64.609-43.565
				c18.907-28.89,20.822-61.676,16.82-96.244c-2.175-18.859-5.606-38.585-9.989-58.29c-2.852-12.832-5.939-25.423-8.849-37.832
				c-7.314-31.396-13.177-61.761-12.191-88.027c0.767-20.453,6.243-37.602,10.549-55.802c4.715-19.929,9.234-42.22,12.949-68.024
				c3.686-25.893,4.733-56.271-1.58-82.879c-2.814-11.769-6.712-22.234-10.712-31.724c-4.662-11.058-9.315-20.724-13.059-29.293
				c-6.95-15.907-12.062-29.154-11.783-45.172c0.346-16.058,7.513-37.151,30.665-49.241"/>
			<path style="fill:none;stroke:#212535;stroke-miterlimit:10;" d="M-159.298,468.222c3.029-30.647,29.076-56.032,59.88-67.939
				c7.309-2.816,14.862-4.956,22.546-6.451c24.695-4.837,50.55-3.502,75.687,0.528c15.608,2.513,31.071,6.048,46.288,10.134
				c39.736,10.657,78.638,24.302,118.583,34.328c41.159,10.331,85.51,16.723,126.576,6.073
				c28.004-7.254,52.725-24.094,66.008-45.854c18.152-29.737,18.235-63.104,13.178-97.931c-2.751-18.999-6.548-38.856-11.002-58.732
				c-2.897-12.937-5.918-25.668-8.653-38.242c-6.876-31.829-11.578-62.798-8.863-89.362c2.117-20.71,9.217-37.821,15.081-56.069
				c6.324-19.682,12.405-41.784,17.094-67.522c4.661-25.819,6.084-56.37-0.913-82.896c-3.118-11.738-7.494-22.078-12.091-31.386
				c-5.352-10.837-10.864-20.215-15.515-28.478c-8.643-15.354-15.736-28.073-17.304-44.204c-1.507-16.168,4.055-38.186,26.728-51.13
				"/>
			<path style="fill:none;stroke:#242737;stroke-miterlimit:10;" d="M-158.188,469.583c3.147-30.698,29.547-56.003,60.557-67.602
				c7.362-2.745,14.958-4.806,22.679-6.222c24.798-4.581,50.714-2.968,75.853,1.289c15.617,2.655,31.075,6.312,46.296,10.509
				c39.735,10.942,78.629,24.829,118.588,35.111c42.391,10.908,88.164,17.631,130.48,6.466
				c28.848-7.603,54.349-25.223,67.407-48.143c17.422-30.582,15.649-64.531,9.536-99.618c-3.327-19.139-7.489-39.127-12.015-59.174
				c-2.942-13.042-5.898-25.913-8.458-38.651c-6.438-32.262-9.978-63.833-5.534-90.698c3.468-20.966,12.171-38.051,19.612-56.335
				c7.914-19.447,15.577-41.348,21.239-67.019c5.637-25.745,7.435-56.469-0.245-82.913c-3.421-11.706-8.275-21.922-13.469-31.049
				c-6.041-10.615-12.413-19.706-17.971-27.664c-10.337-14.8-19.41-26.993-22.827-43.236c-3.36-16.277,0.597-39.221,22.791-53.019"
				/>
			<path style="fill:none;stroke:#262A3A;stroke-miterlimit:10;" d="M-157.077,470.943c3.265-30.75,30.018-55.975,61.233-67.265
				c7.415-2.674,15.054-4.655,22.813-5.994c24.901-4.326,50.878-2.435,76.02,2.05c15.626,2.798,31.08,6.577,46.304,10.884
				c39.733,11.227,78.618,25.361,118.594,35.893c43.619,11.492,90.818,18.54,134.384,6.86c29.691-7.953,55.995-26.348,68.806-50.433
				c16.715-31.425,13.063-65.958,5.895-101.305c-3.902-19.279-8.431-39.398-13.028-59.616c-2.987-13.147-5.876-26.158-8.262-39.061
				c-6-32.694-8.376-64.868-2.205-92.033c4.821-21.222,15.109-38.296,24.144-56.602c9.488-19.227,18.748-40.913,25.384-66.516
				c6.613-25.671,8.786-56.567,0.423-82.93c-3.725-11.675-9.056-21.766-14.848-30.712c-6.729-10.394-13.963-19.197-20.428-26.85
				c-12.032-14.245-23.085-25.912-28.348-42.268c-5.213-16.387-2.861-40.257,18.854-54.909"/>
			<path style="fill:none;stroke:#282C3C;stroke-miterlimit:10;" d="M-155.967,472.303c3.383-30.802,30.49-55.947,61.909-66.929
				c7.468-2.602,15.15-4.505,22.946-5.765c25.005-4.071,51.042-1.901,76.186,2.81c15.634,2.94,31.084,6.842,46.312,11.258
				c39.731,11.512,78.605,25.898,118.6,36.676c44.844,12.084,93.473,19.449,138.288,7.254c30.535-8.302,57.661-27.47,70.204-52.722
				c16.029-32.27,10.476-67.385,2.253-102.992c-4.478-19.419-9.373-39.669-14.041-60.059c-3.033-13.252-5.856-26.402-8.066-39.47
				c-5.562-33.127-6.773-65.902,1.123-93.369c6.175-21.477,18.035-38.555,28.675-56.869c11.052-19.022,21.919-40.477,29.529-66.013
				c7.589-25.596,10.137-56.666,1.091-82.947c-4.028-11.644-9.836-21.611-16.226-30.375c-7.418-10.174-15.514-18.686-22.884-26.035
				c-13.728-13.689-26.759-24.832-33.871-41.301c-7.066-16.496-6.319-41.292,14.916-56.798"/>
			<path style="fill:none;stroke:#2B2F3E;stroke-miterlimit:10;" d="M-154.856,473.664c3.501-30.854,30.961-55.919,62.586-66.592
				c7.52-2.531,15.245-4.354,23.08-5.536c25.108-3.815,51.206-1.367,76.353,3.571c15.643,3.082,31.089,7.106,46.32,11.633
				c39.73,11.797,78.59,26.44,118.605,37.459c46.066,12.684,96.127,20.357,142.192,7.647c31.379-8.651,59.348-28.592,71.603-55.012
				c15.362-33.118,7.89-68.813-1.388-104.679c-5.053-19.559-10.315-39.941-15.054-60.501c-3.078-13.357-5.835-26.647-7.871-39.88
				c-5.125-33.56-5.169-66.935,4.452-94.704c7.529-21.731,20.953-38.831,33.206-57.135c12.609-18.835,25.091-40.042,33.674-65.51
				c8.565-25.523,11.487-56.765,1.758-82.964c-4.331-11.613-10.616-21.456-17.604-30.038c-8.106-9.954-17.064-18.175-25.34-25.221
				c-15.423-13.131-30.433-23.751-39.392-40.333c-8.918-16.606-9.777-42.327,10.979-58.687"/>
			<path style="fill:none;stroke:#2D3141;stroke-miterlimit:10;" d="M-153.746,475.024c3.619-30.905,31.432-55.89,63.262-66.255
				c7.573-2.459,15.342-4.203,23.213-5.307c25.211-3.56,51.37-0.834,76.519,4.332c15.652,3.224,31.094,7.371,46.328,12.008
				c39.728,12.082,78.572,26.986,118.611,38.241c47.285,13.292,98.781,21.266,146.096,8.041
				c32.222-9.001,61.053-29.713,73.002-57.301c14.713-33.97,5.304-70.24-5.03-106.366c-5.629-19.699-11.257-40.212-16.067-60.943
				c-3.122-13.462-5.814-26.892-7.675-40.289c-4.687-33.992-3.564-67.967,7.781-96.04c8.884-21.984,23.866-39.123,37.738-57.402
				c14.164-18.663,28.262-39.606,37.818-65.007c9.54-25.448,12.838-56.864,2.426-82.981c-4.635-11.582-11.396-21.302-18.983-29.701
				c-8.794-9.735-18.628-17.648-27.796-24.407c-17.143-12.544-34.107-22.67-44.914-39.365
				c-10.771-16.715-13.235-43.363,7.042-60.576"/>
			<path style="fill:none;stroke:#2F3443;stroke-miterlimit:10;" d="M-152.635,476.384c3.737-30.957,31.903-55.862,63.938-65.918
				c7.626-2.388,15.438-4.053,23.347-5.078c25.315-3.305,51.534-0.3,76.686,5.093c15.661,3.366,31.098,7.636,46.336,12.383
				c39.727,12.367,78.553,27.536,118.617,39.024c48.5,13.908,101.436,22.175,150,8.435c33.066-9.35,62.776-30.836,74.401-59.591
				c14.08-34.828,2.717-71.667-8.671-108.052c-6.204-19.84-12.198-40.483-17.08-61.385c-3.168-13.567-5.793-27.137-7.479-40.698
				c-4.249-34.425-1.898-68.973,11.109-97.375c10.288-22.217,26.777-39.429,42.269-57.669C436.555,27.045,452.27,6.38,462.8-18.953
				c10.516-25.374,14.189-56.962,3.094-82.998c-4.938-11.55-12.159-21.162-20.361-29.363c-9.461-9.533-20.175-17.138-30.253-23.592
				c-18.833-11.986-37.781-21.59-50.436-38.396c-12.624-16.825-16.693-44.398,3.105-62.465"/>
			<path style="fill:none;stroke:#313645;stroke-miterlimit:10;" d="M-151.525,477.745c3.855-31.009,32.374-55.834,64.615-65.582
				c7.679-2.316,15.534-3.902,23.48-4.85c25.418-3.05,51.699,0.233,76.853,5.854c15.67,3.508,31.103,7.9,46.344,12.758
				c39.725,12.652,78.532,28.088,118.622,39.806c49.712,14.53,104.09,23.083,153.904,8.828c33.91-9.699,64.516-31.959,75.799-61.88
				c13.46-35.692,0.131-73.095-12.313-109.739c-6.78-19.979-13.14-40.754-18.094-61.827c-3.212-13.672-5.772-27.382-7.283-41.108
				c-3.811-34.857-0.302-70.004,14.438-98.711c11.636-22.469,29.69-39.748,46.801-57.935c17.276-18.363,34.605-38.735,46.108-64.002
				c11.492-25.3,15.54-57.061,3.762-83.016c-5.241-11.519-12.941-21.007-21.739-29.026c-10.152-9.313-21.722-16.627-32.709-22.778
				c-20.523-11.429-41.456-20.509-55.958-37.429c-14.477-16.935-20.151-45.433-0.832-64.355"/>
			<path style="fill:none;stroke:#343948;stroke-miterlimit:10;" d="M-150.414,479.105c3.973-31.061,32.845-55.806,65.291-65.245
				c7.732-2.245,15.629-3.752,23.614-4.621c25.521-2.794,51.863,0.767,77.019,6.615c15.679,3.65,31.107,8.165,46.353,13.133
				c39.723,12.938,78.508,28.644,118.628,40.589c50.921,15.161,106.745,23.992,157.808,9.222
				c34.753-10.049,66.27-33.085,77.198-64.17c12.854-36.563-2.455-74.522-15.954-111.426c-7.356-20.12-14.082-41.025-19.106-62.27
				c-3.258-13.778-5.751-27.626-7.088-41.517c-3.373-35.29,1.293-71.035,17.767-100.046c12.983-22.722,32.605-40.079,51.332-58.202
				c18.839-18.231,37.776-38.3,50.253-63.499c12.468-25.226,16.891-57.16,4.429-83.033c-5.545-11.488-13.724-20.853-23.118-28.689
				c-10.844-9.093-23.27-16.116-35.165-21.964c-22.213-10.872-45.13-19.429-61.48-36.46c-16.33-17.044-23.609-46.468-4.769-66.244"
				/>
			<path style="fill:none;stroke:#363B4A;stroke-miterlimit:10;" d="M-149.304,480.465c4.091-31.113,33.317-55.778,65.967-64.908
				c7.784-2.173,15.725-3.601,23.747-4.392c25.625-2.539,52.027,1.3,77.186,7.375c15.687,3.793,31.112,8.43,46.36,13.508
				c39.722,13.223,78.483,29.203,118.633,41.372c52.126,15.798,109.399,24.901,161.712,9.616
				c35.597-10.398,68.039-34.214,78.597-66.459c12.259-37.441-5.042-75.949-19.596-113.113c-7.931-20.26-15.024-41.296-20.12-62.712
				c-3.303-13.883-5.73-27.871-6.892-41.927c-2.935-35.723,2.889-72.066,21.095-101.382c14.331-22.974,35.524-40.419,55.863-58.468
				c20.406-18.109,40.947-37.864,54.398-62.996c13.444-25.152,18.241-57.259,5.097-83.05c-5.848-11.457-14.507-20.698-24.496-28.352
				c-11.535-8.873-24.817-15.605-37.621-21.149c-23.902-10.315-48.804-18.348-67.002-35.492
				c-18.183-17.154-27.067-47.503-8.706-68.133"/>
			<path style="fill:none;stroke:#383E4C;stroke-miterlimit:10;" d="M-148.193,481.826c4.209-31.165,33.788-55.749,66.644-64.572
				c7.837-2.102,15.821-3.451,23.881-4.163c25.728-2.284,52.191,1.834,77.352,8.136c15.696,3.935,31.117,8.694,46.369,13.883
				c39.72,13.508,78.456,29.764,118.639,42.154c53.328,16.443,112.053,25.809,165.616,10.009
				c36.441-10.748,69.822-35.345,79.996-68.749c11.674-38.327-7.628-77.376-23.238-114.8c-8.507-20.4-15.966-41.567-21.133-63.154
				c-3.348-13.988-5.709-28.116-6.696-42.336c-2.498-36.156,4.484-73.096,24.424-102.717c15.679-23.227,38.448-40.767,60.395-58.735
				c21.98-17.995,44.119-37.429,58.543-62.493c14.419-25.078,19.592-57.357,5.765-83.067c-6.152-11.426-15.29-20.543-25.875-28.015
				c-12.226-8.653-26.364-15.094-40.078-20.335c-25.592-9.757-52.478-17.268-72.524-34.524
				c-20.036-17.263-30.525-48.539-12.644-70.023"/>
			<path style="fill:none;stroke:#3B404F;stroke-miterlimit:10;" d="M-147.083,483.186c4.327-31.216,34.259-55.721,67.32-64.235
				c7.89-2.031,15.917-3.3,24.014-3.934c25.831-2.028,52.355,2.367,77.519,8.897c15.705,4.077,31.121,8.959,46.377,14.257
				c39.719,13.793,78.4,30.4,118.645,42.937c54.489,17.192,114.708,26.718,169.52,10.403c37.284-11.097,71.616-36.48,81.394-71.038
				c11.098-39.221-10.214-78.804-26.879-116.487c-9.082-20.54-16.908-41.838-22.146-63.596c-3.393-14.093-5.688-28.361-6.5-42.745
				c-2.06-36.588,6.08-74.127,27.753-104.053c17.027-23.479,41.377-41.121,64.926-59.002c23.559-17.888,47.29-36.993,62.688-61.991
				c15.395-25.004,20.943-57.456,6.432-83.084c-6.455-11.395-16.073-20.388-27.253-27.678c-12.917-8.433-27.911-14.584-42.534-19.52
				c-27.282-9.2-56.152-16.187-78.046-33.557c-21.889-17.373-33.983-49.574-16.581-71.912"/>
			<path style="fill:none;stroke:#3D4351;stroke-miterlimit:10;" d="M-145.973,484.546c4.445-31.268,34.73-55.693,67.996-63.898
				c33.266-8.205,68.773-2.924,101.833,5.952c56.614,15.201,109.315,40.598,165.035,58.352
				c55.72,17.754,117.362,27.627,173.424,10.797c38.128-11.446,73.421-37.619,82.793-73.328
				c10.531-40.122-12.801-80.231-30.521-118.174c-15.911-34.069-27.842-70.173-29.464-107.194
				c-1.622-37.021,7.675-75.158,31.082-105.388c18.374-23.732,44.312-41.481,69.457-59.268S536.125-4.16,552.496-29.09
				c16.371-24.93,22.294-57.555,7.1-83.101c-14.568-24.495-44.65-37.404-73.622-46.047c-28.972-8.643-59.827-15.106-83.568-32.589
				c-23.742-17.482-37.441-50.609-20.518-73.801"/>
			<path style="fill:none;stroke:#3B404F;stroke-miterlimit:10;" d="M382.667-264.964c-16.126,23.875-1.529,56.981,22.863,74.464
				c24.392,17.482,55.798,23.938,85.296,32.742c14.975,4.472,30.201,10.232,43.024,18.285c13.945,8.733,24.38,20.039,31.325,33.581
				c13.2,25.738,7.931,57.348-8.385,81.976c-16.314,24.627-41.26,43.314-65.995,61.083C466.106,54.88,440.687,72.6,422.647,96.109
				c-21.152,27.568-30.667,61.626-30.808,95.4c-0.012,2.93,0.046,5.857,0.173,8.777c1.593,36.578,13.399,72.237,29.052,105.939
				c17.431,37.528,40.076,77.094,30.214,116.809c-9.079,36.562-44.352,63.879-83.126,76.115c-9.12,2.876-18.41,5.047-27.809,6.577
				c-49.344,8.04-101.584-1.332-149.457-16.61c-55.939-17.844-108.807-43.391-165.463-59.084c-12.252-3.394-24.828-6.312-37.5-8.266
				c-21.544-3.32-43.416-3.861-64.456,1.023c-6.281,1.456-12.463,3.488-18.4,6.044c-25.662,11.056-46.65,32.174-49.824,57.655"/>
			<path style="fill:none;stroke:#383E4C;stroke-miterlimit:10;" d="M383.445-265.3c-15.33,24.558,0.166,57.643,25.207,75.126
				s56.999,23.93,87.023,32.895c16.083,4.807,32.413,11.213,45.504,20.423c14.218,9.957,23.262,22.872,29.571,37.262
				c11.311,25.799,6.591,56.525-9.67,80.852c-16.258,24.324-40.832,42.927-65.157,60.679c-24.23,17.637-49.13,35.329-66.836,58.616
				c-20.767,27.319-30.206,60.923-30.357,94.295c-0.013,2.895,0.044,5.786,0.168,8.671c1.564,36.136,13.246,71.35,28.641,104.685
				c17.142,37.113,39.125,76.146,29.908,115.444c-8.777,37.423-44.039,65.876-83.459,78.902c-9.264,3.057-18.723,5.388-28.307,7.046
				c-50.35,8.722-103.854-0.671-152.803-16.316c-56.157-17.933-109.193-43.632-165.891-59.816
				c-12.264-3.502-24.839-6.543-37.511-8.654c-21.533-3.58-43.438-4.481-64.569,0.119c-6.315,1.37-12.538,3.322-18.526,5.813
				c-25.868,10.768-47.187,32.123-49.925,57.687"/>
			<path style="fill:none;stroke:#363B4A;stroke-miterlimit:10;" d="M384.224-265.636c-14.533,25.241,1.861,58.306,27.552,75.789
				c25.691,17.483,58.2,23.922,88.751,33.049c17.19,5.141,34.624,12.193,47.984,22.562c14.491,11.18,22.144,25.636,27.818,40.943
				c9.542,25.742,5.251,55.701-10.955,79.727c-16.201,24.021-40.405,42.541-64.32,60.274
				c-23.772,17.563-48.153,35.225-65.525,58.289c-20.381,27.071-29.744,60.22-29.906,93.19c-0.014,2.859,0.041,5.715,0.164,8.565
				c1.534,35.693,13.092,70.463,28.23,103.43c16.853,36.698,38.196,75.205,29.602,114.079c-8.465,38.29-43.726,67.873-83.792,81.69
				c-9.408,3.238-19.036,5.729-28.804,7.514c-51.356,9.404-106.125-0.01-156.148-16.021
				c-56.376-18.023-109.58-43.872-166.319-60.548c-12.275-3.609-24.85-6.775-37.521-9.041c-21.521-3.84-43.46-5.102-64.681-0.784
				c-6.35,1.285-12.613,3.156-18.652,5.581c-26.074,10.481-47.724,32.072-50.026,57.72"/>
			<path style="fill:none;stroke:#343948;stroke-miterlimit:10;" d="M385.002-265.972c-13.736,25.924,3.556,58.968,29.897,76.452
				c26.341,17.484,59.401,23.914,90.478,33.202c18.298,5.476,36.835,13.173,50.464,24.7c14.764,12.404,21.038,28.34,26.064,44.624
				c7.898,25.588,3.911,54.878-12.24,78.602c-16.145,23.718-39.977,42.154-63.483,59.87c-23.315,17.488-47.176,35.121-64.214,57.963
				c-19.996,26.822-29.282,59.517-29.454,92.086c-0.015,2.824,0.039,5.645,0.159,8.458c1.505,35.251,12.938,69.576,27.819,102.176
				c16.563,36.283,37.288,74.271,29.296,112.714c-8.142,39.163-43.413,69.871-84.124,84.477c-9.551,3.419-19.35,6.071-29.302,7.983
				c-52.362,10.086-108.395,0.652-159.493-15.727c-56.594-18.113-109.966-44.112-166.746-61.28
				c-12.286-3.717-24.861-7.007-37.531-9.428c-21.51-4.101-43.482-5.722-64.794-1.688c-6.384,1.2-12.687,2.99-18.779,5.349
				c-26.28,10.193-48.261,32.02-50.127,57.752"/>
			<path style="fill:none;stroke:#313645;stroke-miterlimit:10;" d="M385.781-266.308c-12.94,26.607,5.251,59.63,32.242,77.114
				s60.602,23.906,92.206,33.356c19.405,5.811,39.046,14.154,52.944,26.839c15.037,13.628,19.954,30.992,24.311,48.305
				c6.38,25.354,2.571,54.054-13.524,77.477c-16.088,23.415-39.55,41.767-62.645,59.465c-22.857,17.413-46.2,35.017-62.902,57.637
				c-19.611,26.573-28.821,58.814-29.003,90.981c-0.016,2.789,0.036,5.574,0.154,8.352c1.476,34.808,12.785,68.688,27.408,100.921
				c16.274,35.868,36.401,73.342,28.99,111.349c-7.808,40.042-43.1,71.868-84.457,87.265c-9.695,3.601-19.663,6.412-29.799,8.452
				c-53.368,10.768-110.665,1.313-162.839-15.433C142.051,487.569,88.511,461.419,31.69,443.76
				c-12.298-3.824-24.873-7.238-37.542-9.816c-21.498-4.361-43.504-6.342-64.907-2.592c-6.418,1.115-12.762,2.825-18.905,5.117
				c-26.487,9.906-48.798,31.969-50.228,57.785"/>
			<path style="fill:none;stroke:#2F3443;stroke-miterlimit:10;" d="M386.559-266.644c-12.143,27.29,6.946,60.293,34.587,77.777
				c27.64,17.484,61.803,23.898,93.934,33.509c20.512,6.145,41.257,15.134,55.424,28.977c15.31,14.851,18.903,33.601,22.558,51.986
				c4.981,25.059,1.231,53.231-14.809,76.352c-16.032,23.112-39.123,41.38-61.808,59.061c-22.399,17.338-45.223,34.913-61.592,57.31
				c-19.225,26.325-28.359,58.111-28.552,89.876c-0.017,2.753,0.034,5.503,0.149,8.246c1.447,34.366,12.631,67.801,26.996,99.667
				c15.985,35.453,35.533,72.42,28.684,109.984c-7.462,40.925-42.787,73.866-84.79,90.053c-9.839,3.782-19.976,6.754-30.297,8.921
				c-54.375,11.45-112.936,1.974-166.184-15.138c-57.032-18.292-110.739-44.593-167.602-62.744
				c-12.309-3.932-24.884-7.47-37.552-10.203c-21.487-4.621-43.526-6.963-65.02-3.495c-6.452,1.03-12.837,2.659-19.031,4.885
				c-26.693,9.618-49.336,31.918-50.33,57.817"/>
			<path style="fill:none;stroke:#2D3141;stroke-miterlimit:10;" d="M387.338-266.98c-11.346,27.973,8.641,60.955,36.932,78.44
				c28.29,17.485,63.004,23.89,95.661,33.663c21.62,6.48,43.468,16.115,57.904,31.115c15.583,16.075,17.892,36.177,20.804,55.667
				c3.693,24.718-0.109,52.408-16.094,75.227c-15.975,22.809-38.695,40.994-60.97,58.656c-21.942,17.263-44.246,34.809-60.28,56.984
				c-18.84,26.076-27.898,57.408-28.101,88.771c-0.018,2.718,0.031,5.432,0.144,8.14c1.417,33.923,12.478,66.914,26.585,98.412
				c15.696,35.038,34.683,71.502,28.377,108.619c-7.104,41.813-42.474,75.863-85.123,92.84c-9.983,3.963-20.29,7.095-30.794,9.39
				c-55.381,12.132-115.206,2.635-169.53-14.844c-57.25-18.382-111.125-44.833-168.03-63.476
				c-12.321-4.039-24.895-7.701-37.562-10.591c-21.475-4.882-43.548-7.583-65.133-4.399c-6.487,0.945-12.911,2.493-19.157,4.653
				c-26.899,9.33-49.873,31.866-50.431,57.85"/>
			<path style="fill:none;stroke:#2B2F3E;stroke-miterlimit:10;" d="M388.116-267.316c-10.55,28.657,10.336,61.617,39.276,79.102
				c28.94,17.485,64.205,23.882,97.388,33.816c22.727,6.814,45.68,17.095,60.384,33.254c15.856,17.299,16.929,38.728,19.051,59.348
				c2.505,24.345-1.449,51.584-17.379,74.102c-15.919,22.506-38.227,40.65-60.133,58.251c-21.444,17.231-43.27,34.706-58.969,56.658
				c-18.454,25.827-27.436,56.705-27.65,87.666c-0.018,2.683,0.029,5.362,0.14,8.034c1.388,33.481,12.324,66.026,26.174,97.158
				c15.407,34.623,33.851,70.588,28.071,107.254c-6.732,42.705-42.16,77.86-85.456,95.627c-10.127,4.144-20.603,7.436-31.292,9.859
				c-56.387,12.814-117.477,3.297-172.875-14.55c-57.469-18.471-111.511-45.073-168.458-64.208
				c-12.333-4.147-24.906-7.933-37.573-10.978c-21.464-5.142-43.57-8.203-65.245-5.302c-6.521,0.86-12.986,2.327-19.283,4.422
				c-27.105,9.043-50.41,31.815-50.532,57.882"/>
			<path style="fill:none;stroke:#282C3C;stroke-miterlimit:10;" d="M388.895-267.652c-9.753,29.34,12.031,62.28,41.621,79.765
				c29.59,17.485,65.406,23.874,99.116,33.969c23.834,7.149,47.891,18.075,62.864,35.392c16.129,18.522,20.221,41.396,17.297,63.029
				c5.985,23.353-2.79,50.761-18.664,72.977c-15.862,22.203-37.796,40.266-59.296,57.847
				c-20.983,17.159-42.293,34.602-57.658,56.331c-18.069,25.579-26.974,56.002-27.198,86.562c-0.019,2.647,0.026,5.291,0.135,7.927
				c1.359,33.038,12.171,65.139,25.763,95.903c15.118,34.208,33.036,69.677,27.765,105.889c-6.346,43.6-41.848,79.858-85.789,98.415
				c-10.27,4.325-20.916,7.778-31.789,10.328c-57.393,13.496-119.747,3.958-176.22-14.255
				c-57.687-18.561-111.898-45.314-168.886-64.94c-12.344-4.254-24.918-8.165-37.583-11.365
				c-21.452-5.402-43.592-8.824-65.358-6.206c-6.555,0.774-13.061,2.161-19.409,4.19c-27.312,8.755-50.947,31.764-50.633,57.915"/>
			<path style="fill:none;stroke:#262A3A;stroke-miterlimit:10;" d="M389.673-267.988c-8.957,30.023,13.726,62.942,43.966,80.428
				c30.24,17.486,66.607,23.866,100.844,34.123c24.942,7.484,50.102,19.056,65.344,37.53c16.402,19.746,19.636,44.092,15.544,66.71
				c4.962,23.109-4.13,49.937-19.949,71.852c-15.806,21.9-37.365,39.882-58.458,57.442c-20.522,17.086-41.316,34.498-56.348,56.005
				c-17.684,25.33-26.513,55.299-26.747,85.457c-0.02,2.612,0.024,5.22,0.13,7.821c1.33,32.596,12.017,64.252,25.352,94.649
				c14.828,33.793,32.236,68.77,27.459,104.524c-5.945,44.499-41.534,81.855-86.121,101.202
				c-10.414,4.506-21.23,8.119-32.287,10.797c-58.399,14.178-122.017,4.619-179.566-13.961
				C150.93,507.94,96.552,481.036,39.522,460.919c-12.355-4.362-24.929-8.396-37.593-11.753c-21.441-5.662-43.614-9.444-65.471-7.11
				c-6.589,0.689-13.135,1.995-19.536,3.958c-27.518,8.468-51.484,31.712-50.734,57.947"/>
			<path style="fill:none;stroke:#242737;stroke-miterlimit:10;" d="M390.452-268.325c-8.16,30.706,15.421,63.604,46.311,81.09
				c30.889,17.486,67.808,23.858,102.571,34.276c26.049,7.818,52.313,20.036,67.824,39.669
				c16.675,20.97,19.052,46.788,13.791,70.391c3.939,22.866-5.47,49.114-21.234,70.728c-15.749,21.597-36.935,39.496-57.621,57.038
				c-20.062,17.013-40.34,34.394-55.037,55.679c-17.298,25.081-26.051,54.596-26.296,84.352c-0.021,2.577,0.022,5.149,0.125,7.715
				c1.301,32.153,11.863,63.365,24.94,93.394c14.539,33.378,31.451,67.865,27.153,103.159c-5.529,45.4-41.221,83.853-86.454,103.99
				c-10.558,4.688-21.543,8.461-32.784,11.266c-59.405,14.86-124.288,5.281-182.911-13.667
				c-58.125-18.74-112.67-45.794-169.741-66.404c-12.367-4.469-24.94-8.628-37.604-12.14c-21.429-5.923-43.636-10.064-65.584-8.013
				c-6.623,0.604-13.21,1.829-19.662,3.726c-27.724,8.18-52.021,31.661-50.835,57.98"/>
			<path style="fill:none;stroke:#212535;stroke-miterlimit:10;" d="M391.23-268.661c-7.363,31.389,17.116,64.267,48.656,81.753
				c31.539,17.487,69.009,23.85,104.299,34.43c27.156,8.153,54.524,21.016,70.304,41.807c16.948,22.193,18.467,49.484,12.037,74.072
				c2.915,22.622-6.81,48.29-22.519,69.603c-15.693,21.294-36.506,39.111-56.783,56.633c-19.602,16.939-39.363,34.29-53.725,55.352
				c-16.913,24.832-25.589,53.894-25.845,83.247c-0.022,2.541,0.019,5.078,0.12,7.608c1.271,31.711,11.71,62.478,24.529,92.14
				c14.25,32.963,30.68,66.961,26.846,101.794c-5.096,46.303-40.908,85.85-86.787,106.777c-10.701,4.869-21.857,8.802-33.282,11.734
				c-60.411,15.542-126.558,5.942-186.257-13.373c-58.343-18.83-113.057-46.035-170.169-67.135
				c-12.379-4.577-24.951-8.859-37.614-12.527c-21.418-6.183-43.658-10.685-65.697-8.917c-6.658,0.519-13.285,1.664-19.788,3.494
				c-27.931,7.892-52.559,31.61-50.937,58.012"/>
			<path style="fill:none;stroke:#1F2333;stroke-miterlimit:10;" d="M392.009-268.997c-6.567,32.072,18.811,64.929,51,82.416
				c32.189,17.487,70.211,23.842,106.026,34.583c28.264,8.488,56.735,21.997,72.784,43.946
				c17.221,23.417,13.006,51.369,10.284,77.753c-2.306,22.346-8.15,47.467-23.803,68.478
				c-15.636,20.991-36.077,38.725-55.946,56.229c-19.143,16.865-38.386,34.186-52.414,55.026
				c-16.527,24.584-25.128,53.191-25.393,82.142c-0.023,2.506,0.017,5.008,0.116,7.502c1.242,31.268,11.556,61.59,24.118,90.885
				c13.961,32.548,29.923,66.059,26.54,100.429c-4.646,47.209-40.595,87.848-87.12,109.565c-10.845,5.05-22.17,9.144-33.779,12.203
				c-61.417,16.224-128.829,6.603-189.602-13.078c-58.562-18.92-113.443-46.275-170.597-67.868
				c-12.39-4.684-24.963-9.091-37.624-12.914c-21.406-6.443-43.681-11.305-65.809-9.82c-6.692,0.434-13.359,1.498-19.914,3.262
				c-28.137,7.605-53.096,31.559-51.038,58.045"/>
			<path style="fill:none;stroke:#1D2030;stroke-miterlimit:10;" d="M392.787-269.333c-5.77,32.755,20.506,65.591,53.345,83.078
				c32.839,17.487,71.412,23.835,107.754,34.737c29.371,8.823,58.946,22.977,75.264,46.084c17.494,24.641,12.423,53.921,8.53,81.434
				c-3.107,21.965-9.49,46.644-25.088,67.353c-15.58,20.688-35.648,38.338-55.108,55.824c-18.685,16.79-37.409,34.082-51.103,54.7
				c-16.142,24.335-24.666,52.488-24.942,81.037c-0.024,2.471,0.014,4.937,0.111,7.396c1.213,30.826,11.402,60.703,23.707,89.631
				c13.671,32.133,29.179,65.158,26.234,99.064c-4.179,48.115-40.282,89.845-87.453,112.352
				c-10.989,5.231-22.483,9.485-34.277,12.672c-62.423,16.906-131.099,7.265-192.947-12.784
				c-58.78-19.01-113.829-46.515-171.025-68.599c-12.401-4.792-24.974-9.323-37.635-13.302
				c-21.395-6.704-43.703-11.925-65.922-10.724c-6.726,0.349-13.434,1.332-20.04,3.03c-28.343,7.317-53.633,31.507-51.139,58.077"/>
			<path style="fill:none;stroke:#1A1E2E;stroke-miterlimit:10;" d="M393.566-269.669c-4.973,33.438,22.201,66.253,55.69,83.741
				s72.613,23.826,109.481,34.89c30.479,9.157,61.158,23.958,77.744,48.222c17.767,25.864,11.91,56.493,6.777,85.115
				c-3.874,21.602-10.83,45.82-26.373,66.228c-15.523,20.385-35.221,37.951-54.271,55.42
				c-18.227,16.714-36.433,33.978-49.793,54.373c-15.757,24.086-24.204,51.785-24.491,79.933c-0.025,2.435,0.012,4.866,0.106,7.29
				c1.184,30.383,11.249,59.816,23.295,88.376c13.382,31.718,28.446,64.258,25.928,97.699
				c-3.692,49.023-39.969,91.842-87.786,115.14c-11.133,5.412-22.796,9.827-34.774,13.141
				c-63.429,17.587-133.369,7.926-196.293-12.49c-58.999-19.099-114.216-46.756-171.453-69.332
				c-12.413-4.899-24.985-9.554-37.645-13.689c-21.383-6.964-43.725-12.545-66.035-11.628c-6.76,0.263-13.509,1.166-20.166,2.799
				c-28.549,7.03-54.17,31.456-51.24,58.11"/>
			<path style="fill:none;stroke:#181B2B;stroke-miterlimit:10;" d="M394.344-270.005c-4.177,34.121,23.896,66.916,58.035,84.404
				s73.814,23.818,111.209,35.043c31.586,9.492,63.369,24.938,80.224,50.361c18.04,27.088,11.467,59.092,5.024,88.796
				c-4.612,21.259-12.17,44.997-27.658,65.103c-15.467,20.082-34.794,37.562-53.433,55.015
				c-17.77,16.638-35.456,33.874-48.481,54.047c-15.371,23.837-23.743,51.082-24.04,78.828c-0.026,2.4,0.009,4.795,0.101,7.184
				c1.154,29.941,11.095,58.929,22.884,87.122c13.093,31.303,27.726,63.358,25.622,96.334
				c-3.186,49.931-39.656,93.84-88.118,117.927c-11.276,5.593-23.11,10.168-35.272,13.61
				c-64.435,18.269-135.64,8.587-199.638-12.195C161.585,532.384,106.2,504.577,48.921,481.51
				c-12.424-5.007-24.996-9.786-37.655-14.076c-21.372-7.224-43.747-13.166-66.148-12.531c-6.795,0.178-13.583,1-20.293,2.567
				c-28.756,6.742-54.707,31.405-51.341,58.143"/>
			<path style="fill:none;stroke:#161929;stroke-miterlimit:10;" d="M395.123-270.341c-3.38,34.804,25.591,67.578,60.38,85.066
				c34.788,17.488,75.015,23.811,112.937,35.197c32.693,9.827,65.58,25.919,82.704,52.499c18.313,28.312,11.094,61.722,3.27,92.477
				c-5.327,20.938-13.51,44.173-28.943,63.978c-15.41,19.779-34.367,37.174-52.596,54.611c-17.313,16.561-34.479,33.77-47.17,53.721
				c-14.986,23.589-23.281,50.379-23.588,77.723c-0.027,2.365,0.007,4.724,0.096,7.077c1.125,29.498,10.942,58.041,22.473,85.868
				c12.804,30.888,27.016,62.457,25.315,94.969c-2.659,50.839-39.343,95.837-88.451,120.715
				c-11.42,5.775-23.423,10.51-35.769,14.079c-65.441,18.951-137.91,9.248-202.984-11.901
				c-59.436-19.279-114.988-47.236-172.308-70.795c-12.436-5.115-25.008-10.017-37.666-14.464
				c-21.36-7.485-43.769-13.786-66.261-13.435c-6.829,0.093-13.658,0.834-20.419,2.335c-28.962,6.454-55.244,31.353-51.442,58.175"
				/>
			<path style="fill:none;stroke:#131627;stroke-miterlimit:10;" d="M395.901-270.677c-2.583,35.487,27.286,68.24,62.725,85.729
				c35.438,17.489,76.216,23.803,114.664,35.35c33.801,10.161,67.791,26.899,85.184,54.637
				c18.586,29.535,10.789,64.387,1.517,96.158c-6.024,20.641-14.85,43.35-30.228,62.853c-15.354,19.476-33.942,36.785-51.759,54.206
				c-16.857,16.483-33.503,33.667-45.859,53.394c-14.6,23.34-22.819,49.676-23.137,76.618c-0.027,2.329,0.004,4.654,0.091,6.971
				c1.096,29.056,10.788,57.154,22.062,84.613c12.515,30.473,26.316,61.556,25.009,93.604c-2.11,51.747-39.03,97.834-88.784,123.502
				c-11.564,5.956-23.737,10.851-36.267,14.547c-66.447,19.633-140.18,9.91-206.329-11.607
				c-59.654-19.369-115.375-47.477-172.736-71.527c-12.447-5.222-25.019-10.249-37.676-14.851
				c-21.349-7.745-43.791-14.406-66.373-14.339c-6.863,0.008-13.733,0.669-20.545,2.103c-29.168,6.167-55.782,31.302-51.544,58.208"
				/>
			<path style="fill:none;stroke:#111424;stroke-miterlimit:10;" d="M396.68-271.013c-1.787,36.17,28.981,68.903,65.069,86.392
				s77.417,23.795,116.392,35.504c34.908,10.496,70.002,27.879,87.664,56.776c18.859,30.759,10.547,67.09-0.237,99.839
				c-6.707,20.369-16.19,42.526-31.513,61.728c-15.297,19.173-33.517,36.395-50.921,53.802
				c-16.402,16.405-32.526,33.563-44.548,53.068c-14.215,23.091-22.358,48.973-22.686,75.513c-0.028,2.294,0.002,4.583,0.087,6.865
				c1.067,28.613,10.635,56.267,21.651,83.359c12.226,30.058,25.627,60.654,24.703,92.239c-1.54,52.653-38.717,99.832-89.117,126.29
				c-11.707,6.137-24.05,11.192-36.764,15.016c-67.453,20.315-142.451,10.571-209.674-11.312
				c-59.873-19.458-115.761-47.717-173.164-72.259c-12.459-5.329-25.03-10.48-37.686-15.239
				c-21.337-8.005-43.813-15.027-66.486-15.242c-6.897-0.077-13.807,0.503-20.671,1.871c-29.375,5.879-56.319,31.251-51.645,58.24"
				/>
			<path style="fill:none;stroke:#0F1122;stroke-miterlimit:10;" d="M397.458-271.349c-0.99,36.853,30.676,69.565,67.414,87.054
				s78.618,23.787,118.119,35.657c36.015,10.831,72.213,28.86,90.144,58.914c19.132,31.983,10.366,69.834-1.99,103.52
				c-7.382,20.124-17.53,41.703-32.797,60.604c-15.241,18.87-33.094,36.004-50.084,53.397
				c-15.948,16.327-31.549,33.459-43.237,52.742c-13.83,22.843-21.896,48.27-22.235,74.408c-0.029,2.259-0.001,4.512,0.082,6.759
				c1.037,28.171,10.481,55.38,21.239,82.104c11.937,29.643,24.947,59.75,24.397,90.875c-0.946,53.558-38.404,101.829-89.45,129.077
				c-11.851,6.318-24.363,11.534-37.262,15.485c-68.46,20.997-144.721,11.232-213.02-11.018
				c-60.092-19.548-116.147-47.957-173.592-72.991c-12.471-5.437-25.041-10.712-37.697-15.626
				c-21.326-8.265-43.835-15.647-66.599-16.146c-6.931-0.162-13.882,0.337-20.797,1.639c-29.581,5.591-56.856,31.199-51.746,58.273"
				/>
			<path style="fill:none;stroke:#0D0F20;stroke-miterlimit:10;" d="M398.237-271.686c-0.193,37.537,32.371,70.227,69.759,87.717
				c37.388,17.49,79.819,23.779,119.847,35.81c37.123,11.165,74.424,29.84,92.624,61.053c19.405,33.206,10.242,72.621-3.743,107.201
				c-8.05,19.905-18.87,40.88-34.082,59.479c-15.184,18.567-32.671,35.612-49.246,52.992
				c-15.495,16.247-30.573,33.355-41.926,52.415c-13.444,22.594-21.435,47.567-21.783,73.304c-0.03,2.223-0.003,4.441,0.077,6.652
				c1.008,27.728,10.327,54.493,20.828,80.85c11.647,29.228,24.275,58.845,24.091,89.51
				c-0.328,54.461-38.091,103.827-89.783,131.865c-11.995,6.499-24.677,11.875-37.759,15.954
				c-69.466,21.679-146.992,11.893-216.365-10.724c-60.31-19.638-116.534-48.197-174.02-73.723
				c-12.482-5.545-25.052-10.944-37.707-16.013c-21.314-8.526-43.857-16.267-66.712-17.049c-6.966-0.247-13.957,0.171-20.924,1.408
				c-29.787,5.304-57.393,31.148-51.847,58.305"/>
			<path style="fill:none;stroke:#0A0C1D;stroke-miterlimit:10;" d="M399.015-272.022c0.603,38.22,34.066,70.89,72.104,88.38
				s81.021,23.771,121.574,35.964c38.23,11.5,76.636,30.82,95.104,63.191c19.678,34.43,10.169,75.453-5.497,110.882
				c-8.717,19.713-20.21,40.056-35.367,58.354c-15.128,18.264-32.285,35.193-48.409,52.588
				c-15.076,16.142-29.596,33.251-40.615,52.089c-13.059,22.345-20.973,46.864-21.332,72.199c-0.031,2.188-0.006,4.37,0.072,6.546
				c0.979,27.286,10.174,53.605,20.417,79.595c11.358,28.813,23.612,57.938,23.785,88.145
				c0.316,55.361-37.778,105.824-90.116,134.652c-12.139,6.68-24.99,12.217-38.257,16.423
				c-70.472,22.361-149.262,12.555-219.711-10.429c-60.529-19.727-116.92-48.438-174.448-74.455
				c-12.493-5.652-25.064-11.175-37.717-16.401c-21.303-8.786-43.879-16.888-66.825-17.953c-7-0.333-14.031,0.005-21.05,1.176
				c-29.993,5.016-57.93,31.097-51.948,58.338"/>
			<path style="fill:none;stroke:#080A1B;stroke-miterlimit:10;" d="M399.794-272.358c1.4,38.903,35.761,71.552,74.449,89.042
				c38.687,17.491,82.222,23.763,123.302,36.117c39.337,11.835,78.847,31.801,97.584,65.329
				c19.951,35.654,10.142,78.33-7.25,114.563c-9.384,19.549-21.55,39.233-36.652,57.229c-15.071,17.961-31.857,34.806-47.571,52.183
				c-14.619,16.067-28.619,33.147-39.304,51.763c-12.674,22.096-20.511,46.161-20.881,71.094c-0.032,2.153-0.008,4.3,0.068,6.44
				c0.95,26.843,10.02,52.718,20.006,78.341c11.069,28.398,22.957,57.028,23.479,86.78c0.986,56.257-37.465,107.821-90.448,137.44
				c-12.282,6.862-25.303,12.558-38.754,16.892c-71.478,23.043-151.533,13.216-223.056-10.135
				c-60.747-19.817-117.306-48.678-174.876-75.187c-12.505-5.76-25.075-11.407-37.728-16.788
				c-21.291-9.046-43.901-17.508-66.937-18.857c-7.034-0.418-14.106-0.161-21.176,0.944c-30.2,4.729-58.467,31.045-52.049,58.37"/>
			<path style="fill:none;stroke:#060719;stroke-miterlimit:10;" d="M400.572-272.694c2.197,39.586,37.456,72.214,76.793,89.705
				c39.337,17.491,83.423,23.755,125.029,36.271c40.445,12.169,81.058,32.781,100.064,67.468
				c20.224,36.877,10.156,81.253-9.003,118.244c-10.053,19.41-22.89,38.409-37.937,56.104
				c-15.015,17.658-31.43,34.419-46.734,51.779c-14.161,15.992-27.643,33.043-37.993,51.436
				c-12.288,21.848-20.05,45.458-20.43,69.989c-0.033,2.118-0.011,4.229,0.063,6.334c0.92,26.401,9.867,51.831,19.595,77.086
				c10.78,27.983,22.309,56.116,23.172,85.415c1.683,57.15-37.152,109.819-90.781,140.227c-12.426,7.043-25.617,12.9-39.252,17.361
				c-72.484,23.725-153.803,13.877-226.401-9.841c-60.966-19.907-117.693-48.918-175.303-75.919
				c-12.516-5.867-25.086-11.638-37.738-17.175c-21.279-9.307-43.923-18.128-67.05-19.76c-7.069-0.503-14.181-0.326-21.302,0.712
				c-30.406,4.441-59.005,30.994-52.15,58.403"/>
			<path style="fill:none;stroke:#030516;stroke-miterlimit:10;" d="M401.351-273.03c2.993,40.269,39.151,72.877,79.138,90.368
				c39.987,17.491,84.624,23.747,126.757,36.424c41.552,12.504,83.269,33.762,102.544,69.606
				c20.497,38.101,10.204,84.22-10.757,121.925c-10.728,19.298-24.23,37.586-39.222,54.979
				c-14.958,17.355-31.003,34.033-45.897,51.374c-13.703,15.917-26.666,32.939-36.682,51.11
				c-11.903,21.599-19.588,44.756-19.978,68.884c-0.034,2.082-0.013,4.158,0.058,6.228c0.891,25.958,9.713,50.944,19.183,75.832
				c10.491,27.568,21.669,55.201,22.866,84.05c2.409,58.038-36.839,111.816-91.114,143.015c-12.57,7.224-25.93,13.241-39.749,17.83
				c-73.49,24.407-156.073,14.539-229.747-9.546c-61.184-19.996-118.079-49.159-175.731-76.651
				c-12.528-5.975-25.097-11.87-37.749-17.563c-21.268-9.567-43.945-18.749-67.163-20.664c-7.103-0.588-14.255-0.492-21.428,0.48
				c-30.612,4.154-59.542,30.943-52.252,58.435"/>
			<path style="fill:none;stroke:#010214;stroke-miterlimit:10;" d="M402.129-273.366c3.79,40.952,40.846,73.539,81.483,91.03
				c40.637,17.492,85.825,23.739,128.484,36.578c42.659,12.839,85.48,34.742,105.024,71.744
				c20.77,39.325,10.282,87.231-12.51,125.606c-22.792,38.375-56.564,70.136-85.566,104.824
				c-29.001,34.688-54.161,74.89-54.898,118.563c-0.948,56.158,38.372,107.287,41.385,163.383
				c3.897,72.561-57.198,139.012-131.693,164.1c-74.496,25.089-158.344,15.2-233.092-9.252
				C165.997,568.76,97.68,530.635,26.828,497.878c-27.765-12.836-58.012-25.185-88.83-21.319s-60.079,30.891-52.353,58.468"/>
			<path style="fill:none;stroke:#010214;stroke-miterlimit:10;" d="M402.664-273.687c3.568,27.973,22.484,51.404,47.002,68.799
				c12.612,8.931,26.747,16.306,41.275,22.034c13.345,5.267,27.114,9.5,41.087,13.338c30.826,8.464,62.459,15.529,92.453,25.392
				c41.276,13.573,83.1,34.651,102.177,70.931c20.275,38.559,10.359,85.414-11.547,123.101
				c-21.905,37.694-54.789,68.846-82.752,103.117c-25.442,31.182-49.584,65.451-57.15,103.176c-1.222,6.088-2,12.262-2.29,18.512
				c-2.679,57.829,35.346,111.895,36.731,169.405c1.712,71.053-57.105,135.886-130.17,160.688
				c-73.052,24.796-155.088,15.167-228.749-7.742c-51.958-16.159-101.292-38.727-150.115-62.286
				c-22.967-11.083-45.867-22.306-69.014-33.006c-26.006-12.021-54.017-23.654-82.663-23.134c-2.584,0.047-5.173,0.194-7.767,0.449
				c-14.061,1.372-27.855,7.271-38.308,15.954c-12.837,10.699-20.608,25.688-16.811,41.192"/>
			<path style="fill:none;stroke:#010214;stroke-miterlimit:10;" d="M403.198-274.008c4.632,28.884,25.431,52.337,51.476,69.312
				c13.423,8.719,28.322,15.8,43.596,21.322c14.013,5.078,28.43,9.181,43.029,13.046c32.214,8.527,64.904,16.916,95.566,27.835
				c39.903,14.21,80.72,34.56,99.33,70.117c19.78,37.794,10.436,83.597-10.583,120.596c-21.019,37.013-52.98,67.585-79.938,101.411
				c-25.908,32.507-52.073,67.076-61.068,105.785c-1.453,6.248-2.436,12.594-2.915,19.027c-4.41,59.5,32.354,116.445,32.078,175.427
				c-0.325,69.503-57.012,132.76-128.647,157.276c-71.607,24.503-151.867,15.186-224.406-6.233
				c-53.098-15.679-103.885-37.869-153.825-61.7c-23.494-11.211-46.887-22.631-70.515-33.551
				C9.83,493.394-18.637,481.493-47.76,481.35c-2.625-0.012-5.257,0.072-7.895,0.262c-14.316,1.013-28.41,6.43-39.321,14.803
				c-13.357,10.314-21.893,25.238-18.565,41.023"/>
			<path style="fill:none;stroke:#010214;stroke-miterlimit:10;" d="M403.732-274.329c5.696,29.795,28.379,53.27,55.949,69.826
				c14.234,8.506,29.897,15.294,45.916,20.61c14.681,4.889,29.747,8.862,44.97,12.754c33.601,8.589,67.326,18.275,98.68,30.279
				c38.544,14.756,78.34,34.469,96.483,69.303c19.286,37.029,10.513,81.781-9.619,118.091
				c-20.132,36.332-51.139,66.35-77.125,99.704c-26.367,33.844-54.561,68.701-64.986,108.394
				c-1.685,6.408-2.872,12.927-3.539,19.543c-6.141,61.171,29.401,120.945,27.424,181.449
				c-2.22,67.917-56.919,129.634-127.124,153.864c-70.163,24.21-148.677,15.257-220.062-4.723
				c-54.258-15.186-106.479-37.012-157.535-61.114c-24.022-11.34-47.907-22.955-72.016-34.096
				c-27.085-12.517-56.009-24.686-85.609-25.492c-2.667-0.071-5.341-0.05-8.022,0.075c-14.571,0.654-28.985,5.566-40.334,13.651
				c-13.9,9.901-23.178,24.788-20.319,40.853"/>
			<path style="fill:none;stroke:#010214;stroke-miterlimit:10;" d="M404.267-274.65c6.76,30.706,31.326,54.203,60.423,70.339
				c15.044,8.294,31.472,14.788,48.236,19.899c15.349,4.699,31.063,8.543,46.911,12.463c34.988,8.651,69.732,19.605,101.794,32.722
				c37.201,15.219,75.96,34.378,93.636,68.49c18.79,36.263,10.59,79.964-8.655,115.586c-19.245,35.65-49.269,65.138-74.311,97.998
				c-26.82,35.193-57.05,70.326-68.904,111.003c-1.916,6.568-3.308,13.26-4.163,20.059c-7.872,62.842,26.493,125.401,22.77,187.471
				c-3.977,66.303-56.826,126.508-125.601,150.452c-68.718,23.917-145.515,15.378-215.719-3.213
				c-55.436-14.681-109.073-36.155-161.244-60.529c-24.549-11.468-48.927-23.279-73.518-34.641
				c-27.624-12.764-57.004-25.202-87.082-26.672c-2.708-0.13-5.425-0.172-8.15-0.112c-14.826,0.295-29.544,4.719-41.347,12.499
				c-14.424,9.508-24.463,24.337-22.073,40.684"/>
			<path style="fill:none;stroke:#010214;stroke-miterlimit:10;" d="M404.801-274.971c7.824,31.618,34.273,55.137,64.897,70.852
				c15.855,8.081,33.047,14.282,50.556,19.187c16.017,4.51,32.379,8.224,48.852,12.171c36.375,8.714,72.125,20.906,104.909,35.165
				c35.877,15.605,73.58,34.288,90.789,67.676c18.296,35.498,10.667,78.147-7.692,113.081
				c-18.358,34.969-47.372,63.947-71.497,96.291c-27.265,36.553-59.538,71.95-72.822,113.612
				c-2.148,6.728-3.744,13.593-4.787,20.574c-9.602,64.513,23.635,129.82,18.117,193.493
				c-5.605,64.669-56.733,123.382-124.078,147.04c-67.274,23.624-142.379,15.547-211.375-1.704
				c-56.631-14.159-111.667-35.298-164.954-59.943c-25.076-11.596-49.948-23.603-75.019-35.186
				c-28.163-13.012-58-25.719-88.555-27.851c-2.75-0.189-5.509-0.293-8.277-0.298c-15.081-0.065-30.102,3.872-42.36,11.347
				c-14.947,9.116-25.748,23.887-23.826,40.515"/>
			<path style="fill:none;stroke:#010214;stroke-miterlimit:10;" d="M405.335-275.292c8.888,32.529,37.221,56.07,69.371,71.366
				c16.666,7.869,34.622,13.776,52.877,18.476c16.685,4.321,33.696,7.905,50.794,11.88c37.763,8.776,74.512,22.175,108.023,37.608
				c34.573,15.922,71.199,34.197,87.942,66.862c17.801,34.732,10.744,76.331-6.728,110.577
				c-17.472,34.288-45.45,62.775-68.683,94.585c-27.7,37.925-62.027,73.575-76.74,116.221c-2.379,6.888-4.18,13.926-5.411,21.09
				c-11.333,66.184,20.832,134.208,13.463,199.515c-7.111,63.02-56.64,120.256-122.555,143.627
				c-65.829,23.331-139.266,15.763-207.032-0.194c-57.841-13.621-114.26-34.441-168.664-59.357
				c-25.603-11.725-50.968-23.927-76.52-35.731c-28.703-13.259-58.996-26.235-90.028-29.03c-2.791-0.249-5.593-0.415-8.405-0.485
				c-15.336-0.424-30.66,3.025-43.373,10.195c-15.469,8.724-27.033,23.437-25.58,40.345"/>
			<path style="fill:none;stroke:#010214;stroke-miterlimit:10;" d="M405.87-275.613c9.952,33.44,40.169,57.003,73.845,71.879
				c17.477,7.657,36.197,13.27,55.197,17.764c17.353,4.131,35.012,7.585,52.735,11.589c39.15,8.838,76.896,23.414,111.137,40.052
				c33.291,16.176,68.819,34.106,85.096,66.049c17.306,33.967,10.821,74.514-5.764,108.072
				c-16.585,33.607-43.505,61.619-65.869,92.878c-28.123,39.307-64.515,75.2-80.658,118.829c-2.611,7.049-4.616,14.259-6.035,21.606
				c-13.064,67.856,18.088,138.572,8.809,205.537c-8.503,61.362-56.547,117.13-121.032,140.215
				c-64.385,23.038-136.174,16.025-202.689,1.315c-59.067-13.063-116.854-33.583-172.374-58.771
				c-26.13-11.853-51.988-24.251-78.022-36.276c-29.242-13.507-59.992-26.751-91.5-30.209c-2.833-0.308-5.677-0.537-8.532-0.672
				c-15.591-0.783-31.216,2.18-44.386,9.043c-15.99,8.333-28.318,22.987-27.334,40.176"/>
			<path style="fill:none;stroke:#010214;stroke-miterlimit:10;" d="M406.404-275.934c11.016,34.351,43.116,57.936,78.318,72.393
				c18.288,7.444,37.772,12.764,57.517,17.052c18.021,3.942,36.328,7.266,54.676,11.297c40.537,8.9,79.283,24.619,114.251,42.495
				c32.029,16.374,66.439,34.015,82.249,65.235c16.811,33.202,10.898,72.697-4.8,105.567
				c-15.698,32.926-41.539,60.479-63.056,91.172c-28.534,40.702-67.003,76.825-84.576,121.438
				c-2.842,7.209-5.052,14.592-6.659,22.121c-14.795,69.527,15.409,142.919,4.155,211.559
				c-9.788,59.699-56.454,114.004-119.509,136.803c-62.94,22.745-133.101,16.33-198.345,2.825
				c-60.306-12.483-119.448-32.726-176.083-58.185c-26.657-11.982-53.008-24.575-79.523-36.821
				c-29.781-13.755-60.987-27.267-92.973-31.388c-2.874-0.367-5.761-0.659-8.66-0.859c-15.846-1.143-31.772,1.335-45.399,7.891
				c-16.51,7.944-29.603,22.536-29.088,40.007"/>
			<path style="fill:none;stroke:#010214;stroke-miterlimit:10;" d="M406.938-276.255c12.08,35.262,46.064,58.869,82.792,72.906
				c19.099,7.232,39.347,12.258,59.838,16.341c18.688,3.753,37.645,6.947,56.617,11.006c41.924,8.963,81.677,25.791,117.365,44.938
				c30.79,16.52,64.059,33.924,79.402,64.421c16.316,32.436,10.975,70.88-3.837,103.062c-14.811,32.245-39.553,59.351-60.242,89.465
				c-28.93,42.107-69.492,78.449-88.494,124.047c-3.074,7.369-5.488,14.925-7.283,22.637c-16.526,71.198,12.8,147.255-0.498,217.581
				c-10.974,58.036-56.362,110.878-117.986,133.391c-61.496,22.452-130.044,16.678-194.002,4.335
				c-61.558-11.88-122.042-31.869-179.793-57.599c-27.184-12.11-54.029-24.899-81.024-37.366
				c-30.321-14.003-61.983-27.783-94.446-32.567c-2.916-0.426-5.846-0.781-8.787-1.046c-16.101-1.502-32.326,0.491-46.411,6.739
				c-17.029,7.555-30.888,22.086-30.841,39.837"/>
			<path style="fill:none;stroke:#010214;stroke-miterlimit:10;" d="M407.473-276.576c13.144,36.173,49.011,59.802,87.266,73.42
				c19.91,7.02,40.922,11.752,62.158,15.629c19.356,3.563,38.961,6.628,58.559,10.714c43.311,9.025,84.083,26.927,120.479,47.382
				c29.573,16.62,61.679,33.833,76.555,63.608c15.821,31.671,11.052,69.064-2.873,100.557
				c-13.924,31.563-37.548,58.236-57.428,87.758c-29.31,43.525-71.98,80.074-92.412,126.656c-3.306,7.529-5.924,15.258-7.907,23.152
				c-18.256,72.869,10.265,151.587-5.152,223.603c-12.069,56.376-56.269,107.752-116.463,129.979
				c-60.052,22.159-127.001,17.066-189.659,5.844c-62.822-11.251-124.635-31.012-183.503-57.013
				c-27.711-12.239-55.049-25.224-82.525-37.911c-30.86-14.25-62.979-28.3-95.919-33.747c-2.958-0.486-5.93-0.902-8.915-1.233
				c-16.356-1.861-32.881-0.353-47.424,5.587c-17.548,7.167-32.173,21.636-32.595,39.668"/>
			<path style="fill:none;stroke:#010214;stroke-miterlimit:10;" d="M408.007-276.897c14.208,37.084,51.958,60.735,91.74,73.933
				c20.721,6.807,42.497,11.246,64.478,14.918c20.024,3.374,40.278,6.309,60.5,10.423c44.699,9.087,86.506,28.027,123.593,49.825
				c28.378,16.679,59.299,33.743,73.708,62.794c15.326,30.906,11.129,67.247-1.909,98.052
				c-13.037,30.882-35.525,57.132-54.614,86.052c-29.672,44.953-74.469,81.699-96.329,129.265
				c-3.537,7.689-6.361,15.591-8.531,23.668c-19.987,74.54,7.811,155.921-9.806,229.625
				c-13.08,54.724-56.176,104.626-114.94,126.566c-58.607,21.866-123.971,17.492-185.315,7.354
				c-64.097-10.594-127.229-30.155-187.213-56.427c-28.238-12.367-56.069-25.548-84.027-38.457
				c-31.399-14.498-63.975-28.816-97.392-34.926c-2.999-0.545-6.014-1.024-9.042-1.419c-16.611-2.22-33.435-1.195-48.437,4.435
				c-18.065,6.78-33.458,21.185-34.349,39.499"/>
			<path style="fill:none;stroke:#010214;stroke-miterlimit:10;" d="M408.541-277.218c15.272,37.995,54.906,61.668,96.214,74.447
				c21.531,6.595,44.072,10.74,66.798,14.206c20.692,3.184,41.594,5.99,62.441,10.131c46.086,9.149,88.951,29.089,126.707,52.268
				c27.205,16.702,56.919,33.652,70.861,61.98c14.831,30.14,11.206,65.43-0.945,95.547c-12.151,30.201-33.487,56.037-51.801,84.345
				c-30.014,46.395-76.957,83.324-100.247,131.874c-3.769,7.849-6.797,15.923-9.155,24.184
				c-21.718,76.211,5.441,160.265-14.46,235.647c-14.014,53.082-56.083,101.5-113.416,123.154
				c-57.163,21.573-120.951,17.956-180.972,8.863c-65.381-9.905-129.823-29.298-190.922-55.841
				c-28.765-12.495-57.089-25.872-85.528-39.001c-31.939-14.745-64.97-29.332-98.865-36.105c-3.041-0.604-6.098-1.146-9.17-1.606
				c-16.866-2.58-33.989-2.037-49.45,3.284c-18.583,6.394-34.743,20.735-36.103,39.329"/>
			<path style="fill:none;stroke:#010214;stroke-miterlimit:10;" d="M409.076-277.539c16.336,38.906,57.854,62.601,100.687,74.96
				c22.342,6.383,45.647,10.234,69.119,13.494c21.36,2.995,42.91,5.671,64.383,9.84c47.473,9.212,91.422,30.11,129.821,54.711
				c26.054,16.692,54.539,33.561,68.014,61.167c14.336,29.375,11.283,63.614,0.018,93.042
				c-11.264,29.52-31.433,54.951-48.987,82.639c-30.335,47.848-79.445,84.949-104.165,134.483c-4,8.009-7.233,16.256-9.779,24.7
				c-23.449,77.882,3.163,164.625-19.113,241.669c-14.877,51.453-55.99,98.374-111.893,119.742
				c-55.718,21.28-117.939,18.456-176.629,10.373c-66.673-9.183-132.417-28.44-194.632-55.255
				c-29.292-12.624-58.109-26.196-87.029-39.547c-32.478-14.993-65.966-29.848-100.338-37.284c-3.082-0.663-6.182-1.268-9.297-1.793
				c-17.121-2.939-34.542-2.878-50.463,2.132c-19.1,6.01-36.029,20.285-37.856,39.16"/>
			<path style="fill:none;stroke:#010214;stroke-miterlimit:10;" d="M409.61-277.86c17.4,39.818,60.801,63.534,105.161,75.474
				c23.153,6.17,47.222,9.728,71.439,12.783c22.028,2.806,44.227,5.352,66.324,9.548c48.86,9.274,93.925,31.089,132.935,57.155
				c24.925,16.654,52.159,33.47,65.167,60.353c13.841,28.61,11.36,61.797,0.982,90.537c-10.377,28.839-29.365,53.872-46.173,80.932
				c-30.631,49.315-81.934,86.574-108.083,137.092c-4.232,8.169-7.669,16.589-10.403,25.215
				c-25.179,79.553,0.982,169.009-23.767,247.691c-15.677,49.839-55.897,95.248-110.37,116.33
				c-54.274,20.987-114.934,18.99-172.285,11.882c-67.972-8.424-135.011-27.583-198.342-54.669
				c-29.82-12.753-59.13-26.52-88.531-40.092C60.646,537.13,26.701,522.006-8.148,513.908c-3.124-0.722-6.266-1.39-9.425-1.98
				c-17.376-3.298-35.095-3.718-51.476,0.98c-19.618,5.625-37.314,19.834-39.61,38.991"/>
			<path style="fill:none;stroke:#010214;stroke-miterlimit:10;" d="M410.144-278.181c18.464,40.729,63.749,64.467,109.635,75.987
				c23.964,5.958,48.797,9.222,73.759,12.071c22.696,2.616,45.543,5.033,68.265,9.257c50.248,9.336,96.467,32.025,136.049,59.598
				c23.817,16.591,49.778,33.379,62.32,59.54c13.346,27.844,11.438,59.98,1.946,88.033c-9.49,28.157-27.284,52.801-43.359,79.225
				c-30.901,50.795-84.422,88.198-112.001,139.701c-4.463,8.329-8.105,16.922-11.027,25.731
				c-26.91,81.225-1.097,173.425-28.421,253.713c-16.419,48.244-55.804,92.122-108.847,112.918
				c-52.829,20.695-111.932,19.557-167.942,13.392c-69.277-7.625-137.604-26.726-202.051-54.083
				c-30.347-12.881-60.15-26.844-90.032-40.637C64.881,540.775,30.48,525.382-4.847,516.621c-3.165-0.782-6.35-1.511-9.552-2.167
				c-17.631-3.658-35.648-4.557-52.489-0.172c-20.134,5.242-38.599,19.384-41.364,38.821"/>
			<path style="fill:none;stroke:#010214;stroke-miterlimit:10;" d="M410.679-278.502c19.527,41.64,66.696,65.4,114.109,76.5
				c24.775,5.746,50.372,8.716,76.079,11.36c23.364,2.427,46.859,4.714,70.206,8.965c51.635,9.398,99.053,32.913,139.163,62.041
				c22.731,16.507,47.398,33.288,59.474,58.726c12.851,27.079,11.515,58.163,2.91,85.528c-8.603,27.476-25.19,51.735-40.545,77.519
				c-31.141,52.289-86.911,89.823-115.919,142.309c-4.695,8.489-8.541,17.255-11.651,26.246
				c-28.641,82.896-3.067,177.881-33.075,259.734c-17.109,46.67-55.711,88.996-107.324,109.505
				c-51.385,20.401-108.934,20.155-163.599,14.902c-70.585-6.783-140.198-25.869-205.761-53.497
				c-30.874-13.009-61.17-27.168-91.533-41.182c-34.096-15.736-68.953-31.397-104.757-40.822c-3.207-0.841-6.434-1.633-9.68-2.354
				c-17.886-4.017-36.202-5.396-53.502-1.324c-20.651,4.86-39.884,18.934-43.118,38.652"/>
			<path style="fill:none;stroke:#010214;stroke-miterlimit:10;" d="M411.213-278.823c20.591,42.551,69.643,66.334,118.582,77.014
				c25.586,5.533,51.947,8.21,78.4,10.648c24.032,2.238,48.176,4.395,72.148,8.674c53.022,9.461,101.69,33.754,142.277,64.484
				c21.667,16.405,45.018,33.197,56.627,57.912c12.356,26.313,11.591,56.347,3.873,83.023
				c-7.717,26.795-23.083,50.674-37.732,75.812c-31.349,53.798-89.399,91.448-119.837,144.918
				c-4.926,8.649-8.977,17.588-12.276,26.762c-30.372,84.567-4.923,182.385-37.728,265.756
				c-17.753,45.118-55.618,85.87-105.801,106.093c-49.94,20.108-105.937,20.783-159.256,16.411
				c-71.896-5.895-142.792-25.012-209.471-52.912c-31.401-13.138-62.19-27.492-93.035-41.727
				c-34.635-15.984-69.949-31.913-106.23-42.001c-3.248-0.9-6.518-1.755-9.807-2.54c-18.141-4.376-36.755-6.234-54.515-2.476
				c-21.169,4.479-41.169,18.484-44.871,38.483"/>
			<path style="fill:none;stroke:#010214;stroke-miterlimit:10;" d="M411.747-279.144c21.655,43.462,72.591,67.267,123.056,77.527
				c26.397,5.321,53.522,7.704,80.72,9.936c24.7,2.048,49.492,4.075,74.089,8.382c54.409,9.523,104.385,34.543,145.391,66.928
				c20.624,16.288,42.638,33.106,53.78,57.099c11.861,25.548,11.669,54.53,4.837,80.518c-6.83,26.114-20.966,49.618-34.918,74.106
				c-31.521,55.322-91.888,93.073-123.755,147.527c-5.158,8.809-9.413,17.921-12.9,27.278
				c-32.103,86.238-6.658,186.946-42.382,271.778c-18.357,43.592-55.525,82.744-104.278,102.681
				c-48.496,19.816-102.938,21.439-154.912,17.921c-73.207-4.955-145.385-24.155-213.181-52.326
				c-31.928-13.266-63.21-27.817-94.536-42.272c-35.175-16.231-70.945-32.429-107.703-43.18c-3.29-0.959-6.602-1.877-9.935-2.727
				c-18.396-4.736-37.308-7.071-55.528-3.628c-21.686,4.098-42.454,18.033-46.625,38.314"/>
			<path style="fill:none;stroke:#010214;stroke-miterlimit:10;" d="M412.282-279.465c22.719,44.373,75.539,68.2,127.53,78.041
				c27.208,5.109,55.096,7.197,83.04,9.225c25.368,1.859,50.808,3.756,76.03,8.091c55.797,9.585,107.146,35.279,148.505,69.371
				c19.603,16.159,40.258,33.016,50.933,56.285c11.367,24.783,11.746,52.713,5.801,78.013
				c-5.943,25.433-18.837,48.565-32.104,72.399c-31.653,56.863-94.376,94.698-127.673,150.136
				c-5.39,8.969-9.849,18.254-13.524,27.793c-33.833,87.909-8.266,191.575-47.036,277.8
				c-18.926,42.093-55.433,79.618-102.755,99.269c-47.051,19.523-99.936,22.122-150.569,19.43
				c-74.517-3.961-147.979-23.297-216.89-51.74c-32.455-13.395-64.231-28.141-96.037-42.817
				c-35.714-16.479-71.94-32.946-109.176-44.359c-3.331-1.018-6.686-1.999-10.062-2.914c-18.651-5.095-37.862-7.908-56.541-4.78
				c-22.203,3.718-43.739,17.583-48.379,38.144"/>
			<path style="fill:none;stroke:#010214;stroke-miterlimit:10;" d="M412.816-279.786c23.783,45.284,78.486,69.133,132.004,78.554
				c28.018,4.896,56.672,6.691,85.361,8.513c26.036,1.669,52.125,3.437,77.972,7.799c57.184,9.647,109.982,35.959,151.619,71.814
				c18.604,16.021,37.878,32.925,48.086,55.471c10.872,24.017,11.823,50.897,6.764,75.508c-5.056,24.752-16.698,47.516-29.29,70.692
				c-31.741,58.42-96.865,96.322-131.591,152.745c-5.621,9.13-10.285,18.587-14.148,28.309
				c-35.564,89.58-9.741,196.28-51.689,283.822c-19.465,40.622-55.34,76.492-101.232,95.857
				c-45.607,19.23-96.93,22.831-146.225,20.94c-75.823-2.908-150.573-22.44-220.6-51.154
				c-32.982-13.523-65.251-28.465-97.539-43.362c-36.253-16.727-72.936-33.462-110.648-45.538c-3.373-1.078-6.77-2.12-10.19-3.101
				c-18.906-5.454-38.415-8.744-57.554-5.932c-22.721,3.339-45.024,17.133-50.132,37.975"/>
			<path style="fill:none;stroke:#010214;stroke-miterlimit:10;" d="M413.35-280.107c24.847,46.195,81.433,70.066,136.478,79.068
				c28.829,4.684,58.246,6.185,87.681,7.802c26.704,1.48,53.441,3.118,79.913,7.508c58.571,9.71,112.903,36.581,154.733,74.258
				c17.628,15.878,35.498,32.834,45.239,54.658c10.377,23.252,11.9,49.08,7.728,73.003c-4.17,24.07-14.549,46.468-26.477,68.986
				c-31.78,59.996-99.353,97.947-135.509,155.354c-5.853,9.29-10.721,18.919-14.772,28.825
				c-37.295,91.251-11.079,201.073-56.343,289.844c-19.98,39.184-55.247,73.367-99.709,92.445
				c-44.163,18.937-93.916,23.563-141.882,22.45c-77.122-1.79-153.167-21.583-224.31-50.568
				c-33.509-13.652-66.271-28.789-99.04-43.907C90.288,562.643,53.149,545.639,14.96,532.9c-3.414-1.137-6.854-2.242-10.317-3.288
				c-19.161-5.814-38.964-9.548-58.567-7.084c-23.233,2.998-46.309,16.682-51.886,37.806"/>
			<path style="fill:none;stroke:#010214;stroke-miterlimit:10;" d="M413.885-280.428c25.911,47.106,84.381,70.999,140.951,79.581
				c29.64,4.471,59.821,5.679,90.001,7.09c27.372,1.291,54.758,2.799,81.854,7.216c59.958,9.772,115.917,37.143,157.847,76.701
				c16.674,15.731,33.118,32.743,42.392,53.844c9.882,22.486,11.977,47.263,8.692,70.498c-3.283,23.389-12.391,45.423-23.663,67.279
				c-31.765,61.591-101.841,99.572-139.427,157.963c-6.084,9.45-11.157,19.252-15.396,29.34
				c-39.026,92.923-12.275,205.965-60.997,295.866c-20.474,37.779-55.154,70.24-98.185,89.032
				c-42.718,18.644-90.894,24.319-137.539,23.959c-78.412-0.604-155.76-20.726-228.02-49.982
				c-34.036-13.78-67.292-29.113-100.541-44.452c-37.332-17.222-74.928-34.494-113.594-47.896
				c-3.456-1.196-6.938-2.364-10.444-3.474c-19.416-6.173-39.52-10.388-59.58-8.236c-23.752,2.613-47.594,16.232-53.64,37.636"/>
			<path style="fill:none;stroke:#010214;stroke-miterlimit:10;" d="M414.419-280.749c26.975,48.018,87.328,71.932,145.425,80.095
				c30.451,4.259,61.396,5.173,92.321,6.379c28.039,1.101,56.074,2.48,83.796,6.925c61.346,9.834,119.036,37.643,160.961,79.144
				c15.744,15.585,30.737,32.652,39.545,53.03c9.387,21.721,12.054,45.447,9.656,67.993c-2.396,22.708-10.223,44.377-20.849,65.573
				c-31.689,63.206-104.33,101.197-143.345,160.572c-6.316,9.61-11.593,19.585-16.02,29.856
				c-40.756,94.594-13.325,210.968-65.651,301.888c-20.954,36.41-55.061,67.115-96.662,85.62
				c-41.274,18.351-87.86,25.096-133.196,25.469c-79.689,0.656-158.354-19.869-231.729-49.396
				c-34.563-13.909-68.312-29.437-102.043-44.997c-37.871-17.469-75.923-35.01-115.067-49.076
				c-3.497-1.255-7.022-2.486-10.572-3.661c-19.671-6.532-40.075-11.229-60.593-9.388c-24.272,2.228-48.879,15.782-55.394,37.467"/>
			<path style="fill:none;stroke:#010214;stroke-miterlimit:10;" d="M414.953-281.07c28.039,48.929,90.276,72.865,149.899,80.608
				c31.262,4.047,62.971,4.667,94.642,5.667c28.707,0.912,57.39,2.161,85.737,6.633c62.733,9.896,122.272,38.082,164.075,81.587
				c14.837,15.441,28.357,32.561,36.699,52.217c8.892,20.956,12.131,43.63,10.62,65.489c-1.509,22.027-8.046,43.332-18.035,63.866
				C907.043,139.84,831.77,177.819,791.326,238.178c-6.547,9.77-12.029,19.918-16.644,30.372
				c-42.487,96.265-14.225,216.094-70.304,307.91c-21.425,35.078-54.968,63.989-95.139,82.208
				c-39.829,18.058-84.814,25.893-128.852,26.978c-80.95,1.996-160.948-19.011-235.439-48.81
				c-35.09-14.037-69.332-29.761-103.544-45.542c-38.411-17.717-76.919-35.527-116.54-50.255c-3.539-1.315-7.106-2.608-10.7-3.848
				c-19.926-6.892-40.631-12.07-61.606-10.54c-24.792,1.843-50.164,15.332-57.147,37.298"/>
			<path style="fill:none;stroke:#010214;stroke-miterlimit:10;" d="M415.488-281.391c29.103,49.84,93.223,73.798,154.373,81.122
				c32.073,3.835,64.546,4.161,96.962,4.955c29.375,0.723,58.707,1.842,87.678,6.342c64.12,9.959,125.636,38.458,167.189,84.031
				c13.954,15.304,25.977,32.47,33.852,51.403c8.397,20.19,12.208,41.813,11.583,62.984c-0.622,21.346-5.86,42.286-15.221,62.159
				c-31.326,66.502-109.307,104.446-151.181,165.79c-6.779,9.93-12.465,20.251-17.268,30.887
				c-44.218,97.936-14.975,221.355-74.958,313.932c-21.891,33.787-54.875,60.863-93.616,78.796
				c-38.385,17.765-81.751,26.708-124.509,28.488c-82.19,3.422-163.542-18.154-239.149-48.224
				c-35.618-14.165-70.352-30.086-105.045-46.087c-38.95-17.965-77.915-36.043-118.013-51.434c-3.581-1.374-7.19-2.729-10.827-4.035
				c-20.181-7.251-41.186-12.911-62.618-11.691c-25.312,1.457-51.449,14.881-58.901,37.128"/>
			<path style="fill:none;stroke:#010214;stroke-miterlimit:10;" d="M416.022-281.711c30.167,50.751,96.171,74.731,158.847,81.635
				c62.676,6.904,126.637,0.769,188.902,10.294c65.507,10.021,129.139,38.773,170.303,86.474
				c41.164,47.701,56.674,115.408,31.144,171.521c-31.023,68.185-111.795,106.071-155.099,168.398
				c-71.553,102.986-26.513,248.045-97.504,351.357C668.12,652.719,583.761,688.41,500.356,693.349
				c-83.405,4.939-166.135-17.297-242.859-47.638c-76.723-30.341-149.315-68.891-226.033-99.245
				c-23.735-9.391-48.754-18.138-74.586-17.065s-52.734,14.431-60.655,36.959"/>
		</g>
	</g>
</g>
</svg>
