<?xml version="1.0" encoding="utf-8"?>
<!-- Generator: Adobe Illustrator 26.0.1, SVG Export Plug-In . SVG Version: 6.00 Build 0)  -->
<svg version="1.1" id="Layer_1" xmlns="http://www.w3.org/2000/svg" xmlns:xlink="http://www.w3.org/1999/xlink" x="0px" y="0px"
	 viewBox="0 0 5958 1001" style="enable-background:new 0 0 5958 1001;" xml:space="preserve">
<style type="text/css">
	.st0{fill:#FFFFFF;}
	.st1{fill:#111111;}
	.st2{fill:#4C6971;}
</style>
<path class="st0" d="M0,175C0,78.4,78.4,0,175,0h830v826c0,96.7-78.3,175-175,175H0V175z"/>
<path class="st1" d="M584,43.7c17.4,2.1,34.9,3.5,52.2,6.4C675,56.5,712.3,68,748,84.5c33,15.3,63.5,34.6,91.1,58.5
	c30.9,26.8,56.3,58.1,76.3,93.8c18.9,33.9,31.6,70,39.3,107.9c3.8,18.7,6.2,37.6,6.8,56.8c1.4,44.7-7.2,87.3-25.7,127.9
	c-12,26.4-27.9,50.3-47.6,71.7c-21.6,23.5-46.5,42.5-74.6,57.6c-29.8,15.9-61.4,26.3-94.6,32c-17.7,3-35.4,5.1-53.4,5.2
	c-2.7,0-5.5,0.6-8.2,0.6c-17.6,0.4-35-1.8-52.3-5.4c-23.4-4.9-46.2-11.5-67.8-21.7c-11.5-5.4-22.5-12.1-33.6-18.2
	c-1.3-0.7-2.6-1.4-4.6-2.6c0,2.1,0,3.4,0,4.7c-0.1,30.7-0.2,61.5-0.4,92.2c-0.1,21.6-0.4,43.1-0.7,64.7c-0.1,7.6,0,15.2-0.4,22.8
	c-0.4,8.1-1.2,16.1-2.2,24.1c-1.4,12.3-3,24.6-4.7,36.8c-2.5,17.2-5.2,34.4-7.9,51.5c-0.6,3.9-1.3,7.8-2,11.6
	c-3.8,1.1-114.7,1.3-120.5,0.3c0-0.3-0.1-0.7,0-1c6.1-12.4,7.1-26.2,10.1-39.4c5.2-22.6,7.3-45.5,9.4-68.4
	c1.1-11.5,2.5-22.9,3.7-34.3c0.2-1.7,0.1-3.5,0.1-5.2c0-80.6,0-161.3,0-241.9c0-2.2,0-4.4,0-7c42,0,83.7,0,125.5,0
	c2.8,6.6,5.5,13.4,8.5,19.9c5.4,11.8,12.7,22.4,21.6,32c21.5,22.9,48.7,35.1,78.6,42c13.1,3,26.3,5.1,39.8,5.7
	c22.2,1,43.5-2.9,64-11.3c19.5-8,36.7-19.6,52.1-34c25.6-24,43.1-53.1,55.3-85.7c8.6-23,13.7-46.9,16.2-71.3
	c1.7-16.7,2.4-33.4,1.5-50c-1.3-25.3-4.2-50.4-10.9-74.9c-8.4-30.7-24-57.4-44.9-81.2c-5.8-6.6-11.7-13.2-17.8-19.4
	c-14.8-15-32-26.7-50.5-36.6c-27-14.5-55.6-25.1-85.3-32.5c-19.1-4.8-38.3-8.1-57.9-10.3c-21.2-2.4-42.4-2.8-63.5-1.5
	c-37.6,2.3-74,10.5-107.8,27.6c-34.4,17.4-62,42.4-80.8,76.2c-11.3,20.4-21.5,41.4-25.6,64.6c-1.4,8.1-2.3,16.4-2.9,24.6
	c-0.6,8.1-0.7,16.2-0.7,24.3c0,6.9,0.6,13.7,0.8,20.5c-4.1,1.3-108,1.8-117.4,0.7c-0.2-0.4-0.6-0.8-0.6-1.3
	c-0.1-14.3-0.7-28.7,0-42.9c1.9-34,9.2-66.8,22.3-98.3c13.1-31.7,31.1-60.3,53.6-86.1c21.1-24.2,45.5-44.7,73-61.2
	c20.2-12.1,41.7-21.5,63.7-29.5c20.4-7.4,41.3-13.3,62.7-17.5c14.7-2.9,29.6-4.7,44.4-6.7c7-1,14-1.3,22-1.9
	c3.7-0.5,6.8,1.1,9.4-1.1c13.8,0,27.7,0,42.2,0.4C578.1,43.6,581.1,43.7,584,43.7z"/>
<path class="st1" d="M168.4,737.9c2.8-9.9,4.4-19.5,4.4-29.4c0-9.5,0.5-18.9,0.6-28.4c0-4.5-0.6-8.9-0.6-13.4
	c0.2-39.7,0.4-79.4,0.7-119.1c0-1.5,0-3.1,0-5.4c-8.8-0.3-17.3-0.1-25.9-0.2c-8.6,0-17.3,0-25.9,0c-8.8,0-17.6,0-26.4,0
	c-8.6,0-17.3,0-25.9,0c-8.6,0-17.2,0-26.3,0c0.5-5.3,0.5-10.2,1.6-14.8c2-8.9,4.1-17.8,6.9-26.4c6.1-18.8,16.2-35.6,29.5-50
	c17.8-19.2,39.2-33.1,65.1-39.1c9.3-2.1,18.6-3.4,28.1-3.4c131.4,0,262.9,0,394.3,0c2.2,0,4.4,0,6.9,0c0,44.6,0,88.7,0,133.5
	c-6.8,0.3-13.6,0.1-20.5,0.1c-6.9,0-13.8,0-20.7,0s-13.8,0-20.7,0c-6.9,0-13.8,0-20.7,0c-6.9,0-13.8,0-20.7,0s-13.8,0-20.7,0
	c-6.7,0-13.5,0-20.2,0c-6.9,0-13.8,0-20.7,0s-13.8,0-20.7,0s-13.8,0-20.7,0s-13.8,0-20.7,0c-6.9,0-13.8,0-20.7,0
	c-6.9,0-13.7,0-21.2,0c0,2.5,0,4.6,0,6.6c0,52.3,0.1,104.7,0,157c-0.1,23-3.8,45.6-10.5,67.6c-10.7,35.1-28.3,66.6-52.5,94.1
	c-20.5,23.4-44.5,42.6-71.9,57.6c-26.4,14.5-54.5,24.2-84.1,29.3c-14.1,2.4-28.3,3.9-42.6,3.6c-1.2-4.1,0.4-121.3,1.8-129.1
	c2.4-0.2,4.9-0.6,7.4-0.7c28.5-1.9,53.5-12.2,75.3-30.5C148.2,781.7,161,761.8,168.4,737.9z"/>
<path class="st0" d="M5383.6,772.9c-27.3,17.1-57.4,19.2-88.8,18.9c-83.9-0.9-167.8,0.2-251.7-0.5c-45-0.4-87.2-11.7-123.2-40.5
	c-5.1-4.1-9.6-8.8-15.3-14c-11.1,17.7-23.4,33.6-42.6,42.9c-15.5,7.5-31.3,12.1-48.7,12c-91.2-0.2-182.5,0.9-273.8-0.7
	c-26-0.5-52.8-5.5-77.6-13.3c-85.2-26.7-112.3-117.2-57.3-188.3c29.4-38,70.2-57.2,115.6-67.6c15.6-3.6,32-4.7,48-5
	c33.1-0.7,66.3-0.7,99.4-0.1c32.9,0.6,63.5,9.3,91.8,26.9c34.2,21.3,41.9,68.9,13.7,103.9c-11.7,14.5-25,22.5-45.3,21.1
	c-30.8-2-61.8-0.5-92.7-0.5c-6.5,0-13,0-23.3,0c14.5-30.2,27.5-57.4,41.7-87c-28.8,0-54.1,0-81.6,0c-7.2,20.7-14.6,42-21.9,63.4
	c-4,11.8-7.9,23.7-11.6,35.6c-7.3,23.9,2.9,40.7,27.5,44.5c12.3,1.9,24.8,3.6,37.1,3.6c93.5,0.3,187,0.2,280.4,0.1
	c4.2,0,8.4-0.6,11.3-0.8c-2.3-19.8-7.1-38.7-6-57.2c3.1-55.3,33.2-94.6,79.9-121.5c37.6-21.6,78.3-32.8,122.1-32.4
	c42.7,0.4,85.4-0.3,128.1,0.2c51.6,0.6,94.6,57.6,63.3,113c-13.3,23.6-35,37.7-63,38.2c-13.8,0.2-28.4,0.2-41.2-3.9
	c-27.6-8.9-46.2-27.8-51.6-57.5c-1.4-7.9-2.8-15.8-4.4-25.1c-13.4,0-27.1,0-43,0c-3.5,8.7-7.8,18.7-11.4,28.8
	c-7.2,20-14.3,40.1-20.8,60.4c-11,34.5,1.2,53.5,37.1,54.7c58,1.9,116.1,2.5,174.1,3.1c47.1,0.5,94.2,0.1,143.2,0.1
	c44.2-141.7,88.3-283,132.8-425.2c48.6,0,96.1,0,146.8,0c-34.6,111.8-69,222.9-104.2,336c0.7,2.7,2.2,3.4,3.7,4
	c37.3-31.8,74.6-63.6,112.1-95.3c34.2-29,72.9-45.6,118.7-43.2c25.9,1.4,37.5,12.1,36.9,38.3c-0.3,13.7-2.2,27.8-6.2,40.9
	c-12.7,41.3-26.8,82.1-40.1,123.1c-2,6-3.2,12.3-5.5,21.5c54.1,0,105.9,0,159.8,0.3c2,3.6,2,6.9,2,11.9
	c-21.9,37.7-54.5,51.9-96,51.2c-57.4-1-114.7-0.2-172.1-0.3c-5.9,0-11.8,0.3-17.6-0.5c-18.9-2.8-29.3-14-28.2-33
	c0.7-13,4.3-26,7.8-38.6c6.3-22.4,13.5-44.6,16.9-69.4c-14.9,12.1-29.9,24.1-44.6,36.4c-33.2,27.8-66.2,55.8-99.4,83.5
	c-18,15-38.2,23.4-62.7,22c-25.6-1.5-51.3-0.3-78-0.3c0.6-5.3,0.9-8.9,2.2-15.1c0.5-4,0.1-5.2-0.3-6.5
	C5385.2,770.9,5384.4,771.9,5383.6,772.9z"/>
<path class="st0" d="M2712.2,775.3c-19.2,12.1-39.8,17.1-62.8,16.6c-53-1.1-106.1-0.9-159.1-0.1c-27.3,0.4-47-10.1-58.6-34.7
	c-19-40.5-37.8-81.2-56.3-122c-12.8-28-25-56.3-38.1-85.7c27.1-9.8,53.5-18.4,79.2-28.8c25.1-10.2,50.1-21,74.1-33.6
	c21-11.1,38.4-27.2,50.6-48.1c9.5-16.2,14.6-34,12.4-52.6c-3.5-29.1-19.9-47.6-48.4-56.4c-24.4-7.6-49.3-7.8-74.1-7.9
	c-121.6-0.3-243.1-0.2-364.7-0.2c-8.1,0-16.1,0-24.4,0c4.1-17.3,34.3-68.6,59.9-101.6c5.4,0,12,0,18.5,0c140.7,0,281.4-0.1,422.2,0
	c35.6,0,70.1,6.2,103.7,18.2c98.8,35.3,105.4,143.6,55.1,206c-22.5,27.9-49.8,50.2-80.7,67.5c-32,18-65.6,33.1-98.5,49.3
	c-5.2,2.6-10.6,4.7-18,8c10,22.8,19.6,44.8,29.4,66.7c11.8,26.1,23.9,52.1,35.7,78.2c3.9,8.5,8.1,14.5,19.4,14.3
	c47.1-0.6,94.2-0.3,143.2-0.3c44.3-141.8,88.4-283.3,132.9-425.6c48.7,0,96.2,0,147,0c-34.7,111.9-69.1,223.1-104.3,336.3
	c0.7,2.7,2.2,3.4,3.6,4c36.9-31.4,73.9-62.7,110.8-94.2c34.9-29.8,74.2-47,121-44.3c24.8,1.4,36.7,12.2,36.2,37.1
	c-0.3,14.5-2.4,29.4-6.6,43.2c-12.7,41.4-26.9,82.4-40.4,123.6c-1.8,5.4-3,11-5.1,18.5c53.2,0,104.4,0,156.5,0
	c-0.4-2.3-0.2-5.3-1.2-7.7c-28.1-63.8,4.9-150.8,82.3-183.3c30.7-12.9,62.9-19.7,96.6-19.5c102.4,0.4,204.8,0.1,307.2,0.1
	c8,0,16,0,25.7,0c-1.1-5.1-1.2-8.7-2.7-11.6c-31.6-62.3-24.4-159.2,58.2-225.1c48.9-39.1,105.8-58.4,167.6-58.8
	c180.5-1.2,361-0.4,541.5-0.4c5.1,0,10.2,0.5,17.3,0.9c-2.7,6.3-4.5,11.6-7.1,16.5c-12.5,23.3-25.7,46.3-37.5,69.9
	c-5.3,10.6-11.7,14.9-23.9,14.6c-36.8-0.8-73.6-0.3-110.5-0.3c-7.3,0-14.6,0-23.6,0c-3.5,9-7.2,17.6-10.3,26.4
	c-39.3,110-78.3,220-117.9,329.9c-13.5,37.5-35.1,69.4-70,90.8c-22.4,13.7-46.7,22.4-72.9,22.5c-98,0.5-196,0.2-293.9,0.1
	c-3.5,0-7-0.8-13.4-1.6c12.7-32.9,23.2-65.1,51.8-86.1c8.3-6.1,20.3-10.9,30.2-10.2c31.4,2.1,62.7,6.7,93.9,11.1
	c31.9,4.5,63.8,10.1,95.7,15c4.2,0.7,8.7,0.1,15.1,0.1c46.6-131.5,93.4-263.4,140.8-397c-8.8-0.4-15.3-0.9-21.8-0.9
	c-64.1-0.1-128.2,0.2-192.3-0.1c-43-0.2-83.3,7.7-117.6,35.9c-26.6,21.9-41.4,49.2-39.1,84.4c1,14.9,4.5,20.7,19.3,31.5
	c2.5-5.2,4.9-10.1,7.3-14.9c20.9-42.9,54.4-65.1,103-66.4c37.2-1,68.2,9,90.6,39.8c34.1,47.1,21.1,109.8-28.9,139.5
	c-21.3,12.7-44.5,18.9-69.1,19.8c-29.5,1.1-58.8,0-87.2-9.5c-4.8-1.6-10.1-2.1-15.2-2.1c-73.7-0.1-147.3-0.1-221,0
	c-2.7,0-5.3,0.5-7.1,0.7c6.3,19,15,36.4,17.5,54.7c6.3,46.1-10.3,85.1-44.4,116.1c-34,31-76,44.9-120.9,47.2
	c-31.4,1.7-63.4,0.3-94.5-4c-41.7-5.7-79.2-22.4-108.2-56.8c-6.6,9-11.5,17.9-18.4,24.7c-19.1,18.6-42,29.3-69.2,29.4
	c-63.4,0.1-126.7,0.2-190.1-0.1c-32.9-0.1-46.3-15.6-38.9-47.8c6.2-27.1,15.6-53.5,23.4-80.3c1.2-3.9,1.5-8.1,2.9-16.3
	c-31.7,26.4-60.4,50.3-89.1,74.2c-19.2,16-38.2,32.2-57.4,48.2c-18.1,15-38,24-62.6,22.4c-22.7-1.5-45.6-0.4-68.5-0.3
	c-6.8,0-11.8-1.2-9.1-12.1C2715.2,776.5,2713.7,775.9,2712.2,775.3z M3496.4,704.1c14.1-40.5,28.3-81,43.2-123.6
	c-31.9,0-60.1,0-89.9,0c-12.7,36.7-25.8,73.1-37.9,109.8c-5,15,1,27.4,15.3,34.3c19.1,9.1,39.1,10.1,59.4,6.2c1.5-3.6,2.6-6.2,3.6-9
	C3491.9,717.1,3493.5,712.2,3496.4,704.1z"/>
<path class="st0" d="M1595.3,421.3c5.6-20.3,9-38.8,3-58c-4.9-15.9-13.9-27.9-30-32.4c-12.6-3.6-25.7-6.9-38.7-7.2
	c-52.2-1.3-104.5-1.6-156.8-1.7c-86.9-0.2-173.8-0.1-260.7-0.1c-7.2,0-14.3,0-24.2,0c3.2-6.8,4.8-11.4,7.3-15.4
	c15-24.4,30.5-48.6,45.2-73.2c5.4-9.1,11.7-13.2,22.8-13.2c149.5,0.3,299-0.3,448.4,0.8c23.9,0.2,48.2,5.4,71.5,11.4
	c41.3,10.5,72.7,34.3,89.1,78c6.1-7.3,11.2-13.1,15.9-19.1c41.2-51.6,138.4-56.6,182.2,8c32.7,48.3,16.2,110.1-42.6,138.3
	c-43.5,20.8-108.2,15.1-143.6-32.3c-2.6-3.4-5.2-6.8-8.2-10.8c-6.9,15.5-12.3,30.6-20,44.5c-21.9,39.7-55.2,68.5-92.4,93
	c-63.8,42-133.7,70.7-206.8,91.7c-37.4,10.7-75.3,19.5-116.3,30c-13.9,44.2-28.5,90.9-43.2,137.7c-49.6,0-97.3,0-148.4,0
	c43.4-139.4,86.3-277,129.3-415.2c48.9,0,96.5,0,147.5,0c-19.8,64.1-39.2,126.8-58.8,190.4c2.9,0.4,4.9,1.2,6.7,0.8
	c62.4-14.3,120.3-38.3,171-78.2C1567.1,471.1,1583.8,449.4,1595.3,421.3z"/>
<path class="st0" d="M2375,375.7c-3.6,20.5-8.4,40.4-14.4,59.9c-36.1,115.7-72.5,231.2-108.9,346.8c-0.8,2.7-2,5.3-3.3,8.6
	c-48,0-95.5,0-146.4,0c43.1-139,85.8-276.2,129.2-416C2278.3,375,2325.8,375,2375,375.7z"/>
<path class="st0" d="M1910.8,557.4c-17.7,56.9-34.9,112.1-53.1,170.3c56.9,0,110.9,0,165.4,0c-8.3,35.8-40.2,62.9-77.1,63.5
	c-64.7,1.1-129.5,0.8-194.2,0.1c-27.3-0.3-43.4-16.9-44.6-44.4c-0.4-7.9,0.3-16.3,2.6-23.9c20-65.3,40.6-130.5,61-195.7
	c1.1-3.4,2.9-6.6,4.6-10.4c48.8,0,97.2,0,147.7,0C1918.8,530.8,1915,543.3,1910.8,557.4z"/>
<path class="st2" d="M2492.8,750.1c-0.3,0-0.7-0.2-0.9-0.5C2492.2,749.5,2492.6,749.9,2492.8,750.1z"/>
<path class="st2" d="M2431.7,791.2c0-0.5,0.3-0.8,0.5-1.2c0.1,0.4,0.2,0.8,0.2,1.5C2432.3,791.8,2431.9,791.4,2431.7,791.2z"/>
<path class="st2" d="M1658.1,750.1c-0.3,0-0.7-0.2-0.9-0.5C1657.4,749.5,1657.9,749.9,1658.1,750.1z"/>
<path class="st2" d="M1596.3,706.9c0.3,0,0.7,0.2,0.9,0.5C1596.9,707.6,1596.5,707.1,1596.3,706.9z"/>
</svg>
